<?xml version="1.0" encoding="UTF-8" standalone="no"?>
<!-- Created with Inkscape (http://www.inkscape.org/) -->

<svg
   xmlns:dc="http://purl.org/dc/elements/1.1/"
   xmlns:cc="http://creativecommons.org/ns#"
   xmlns:rdf="http://www.w3.org/1999/02/22-rdf-syntax-ns#"
   xmlns:svg="http://www.w3.org/2000/svg"
   xmlns="http://www.w3.org/2000/svg"
   xmlns:sodipodi="http://sodipodi.sourceforge.net/DTD/sodipodi-0.dtd"
   xmlns:inkscape="http://www.inkscape.org/namespaces/inkscape"
   width="300"
   height="300"
   id="svg2"
   version="1.1"
   inkscape:version="0.48.2 r9819"
   sodipodi:docname="New document 1">
  <defs
     id="defs4">
    <filter
       id="filter3839"
       inkscape:label="Drop shadow"
       width="1.5"
       height="1.5"
       x="-.25"
       y="-.25">
      <feGaussianBlur
         id="feGaussianBlur3841"
         in="SourceAlpha"
         stdDeviation="2.5"
         result="blur" />
      <feColorMatrix
         id="feColorMatrix3843"
         result="bluralpha"
         type="matrix"
         values="1 0 0 0 0 0 1 0 0 0 0 0 1 0 0 0 0 0 0.504 0 " />
      <feOffset
         id="feOffset3845"
         in="bluralpha"
         dx="4"
         dy="4"
         result="offsetBlur" />
      <feMerge
         id="feMerge3847">
        <feMergeNode
           id="feMergeNode3849"
           in="offsetBlur" />
        <feMergeNode
           id="feMergeNode3851"
           in="SourceGraphic" />
      </feMerge>
    </filter>
  </defs>
  <sodipodi:namedview
     id="base"
     pagecolor="#ffffff"
     bordercolor="#666666"
     borderopacity="1.0"
     inkscape:pageopacity="0.0"
     inkscape:pageshadow="2"
     inkscape:zoom="1.979899"
     inkscape:cx="127.77874"
     inkscape:cy="158.96751"
     inkscape:document-units="px"
     inkscape:current-layer="layer1"
     showgrid="false"
     inkscape:window-width="1270"
     inkscape:window-height="868"
     inkscape:window-x="0"
     inkscape:window-y="22"
     inkscape:window-maximized="0" />
  <metadata
     id="metadata7">
    <rdf:RDF>
      <cc:Work
         rdf:about="">
        <dc:format>image/svg+xml</dc:format>
        <dc:type
           rdf:resource="http://purl.org/dc/dcmitype/StillImage" />
        <dc:title></dc:title>
      </cc:Work>
    </rdf:RDF>
  </metadata>
  <g
     inkscape:label="Layer 1"
     inkscape:groupmode="layer"
     id="layer1"
     transform="translate(0,-752.36218)">
    <rect
       style="fill:#000000;fill-opacity:0;stroke:#000000;stroke-width:0.74900001000000005;stroke-miterlimit:4;stroke-opacity:1;stroke-dasharray:none;filter:url(#filter3839)"
       id="rect2985"
       width="162.14285"
       height="262.14285"
       x="69.285713"
       y="775.21936"
       ry="2.2348275" />
    <path
       style="fill:none;stroke:#000000;stroke-width:1px;stroke-linecap:butt;stroke-linejoin:miter;stroke-opacity:1"
       d="m 82.5,39.642857 c 1.419747,0.414021 2.22435,1.510064 3.214286,2.5 0.238095,0.238095 0.394847,0.607806 0.714286,0.714285 0.441322,0.147108 0.357142,-0.604866 0.357142,-0.714285 0,-1.309524 0,-2.619048 0,-3.928572 0,-0.119047 -0.08418,-0.272963 0,-0.357143 0.08418,-0.08418 0.238096,0 0.357143,0 0.119048,0 0.238096,0 0.357143,0 0.357143,0 0.73983,-0.132639 1.071429,0 0.312634,0.125054 0.444911,0.512256 0.714285,0.714286 0.212959,0.159719 0.461748,0.272964 0.714286,0.357143 0.659719,0.219906 0.169321,-0.544965 1.071429,0.357143 0.168358,0.168359 -0.212959,0.607806 0,0.714286 0.415942,0.207971 2.150818,-0.341221 2.5,0.357142 0.159719,0.319439 -0.13264,0.73983 0,1.071429 0.125053,0.312634 0.563701,0.413116 0.714285,0.714286 0.10648,0.212959 -0.04669,0.480814 0,0.714285 0.07383,0.369151 0.265838,0.706208 0.357143,1.071429 0.02887,0.115493 -0.106479,0.303903 0,0.357143 0.377206,0.188603 1.175814,-0.104385 1.428572,-0.357143 0.08418,-0.08418 -0.08418,-0.272963 0,-0.357143 0.188231,-0.188231 0.526055,-0.168912 0.714285,-0.357143 0.08418,-0.08418 -0.05324,-0.250663 0,-0.357143 0.07529,-0.150584 0.281851,-0.206558 0.357143,-0.357142 0.05324,-0.10648 -0.05324,-0.250664 0,-0.357143 0.07529,-0.150585 0.263755,-0.21706 0.357143,-0.357143 0.147661,-0.221491 0.135652,-0.566625 0.357143,-0.714286 0.198107,-0.132071 0.47619,0 0.714286,0 0.119047,0 0.272963,0.08418 0.357143,0 0.08418,-0.08418 0,-0.238095 0,-0.357143 0,-0.119047 0,-0.238095 0,-0.357143 0,-0.03513 -0.01842,-2.106026 0,-2.142857 0.05324,-0.106479 0.238095,0 0.357142,0 0.238096,0 0.476191,0 0.714286,0 0.11905,0 0.2381,0 0.35714,0 0.11905,0 0.25809,-0.06603 0.35715,0 0.28016,0.186778 0.45135,0.50394 0.71428,0.714286 0.5615,0.449199 1.38772,0.765244 1.78572,1.428571 0.19368,0.322814 0.0909,0.80523 0.35714,1.071429 0.3407,0.340706 0.92913,-0.07256 1.07143,-0.357143 0.0748,-0.149678 -0.0467,-1.405229 0,-1.428571 0.21296,-0.10648 0.71428,-0.238096 0.71428,0 0,0.238095 -0.95238,0 -0.71428,0 0.35714,0 0.73261,-0.112939 1.07143,0 0.11293,0.03765 0,0.238095 0,0.357143 0,0.357142 -0.0701,0.721221 0,1.071428 0.0522,0.261029 0.30493,0.453257 0.35714,0.714286 0.07,0.350207 0,0.714286 0,1.071428 0,0.119048 -0.0532,0.250664 0,0.357143 0.0465,0.09298 0.46797,0.603457 0.71428,0.357143 0.0842,-0.08418 0,-0.238095 0,-0.357143 0,-0.238095 -0.10647,-0.501327 0,-0.714285 0.0532,-0.10648 0.2381,0 0.35715,0 0.53634,0 1.31247,0.09465 1.78571,0 0.26103,-0.05221 0.46713,-0.25828 0.71429,-0.357143 0.34953,-0.139815 0.72189,-0.217329 1.07143,-0.357143 0.24716,-0.09886 0.46174,-0.272964 0.71428,-0.357143 0.11294,-0.03765 0.24421,0.03765 0.35714,0 0.25254,-0.08418 0.46175,-0.272963 0.71429,-0.357143 0.34222,-0.114073 1.45485,0.110287 1.78571,0 1.11476,-0.371586 -0.11904,-0.238095 0.35715,-0.714286 0.0842,-0.08418 0.31949,-0.112938 0.35714,0 0.10761,0.322835 -0.12369,2.252616 0,2.5 0.0532,0.10648 0.3039,-0.106479 0.35714,0 0.10648,0.212959 -0.16836,0.545927 0,0.714286 0.16836,0.168359 0.47619,0 0.71429,0 0.23809,0 0.48841,0.07529 0.71428,0 0.15972,-0.05324 0.19743,-0.303903 0.35715,-0.357143 0.30491,-0.101637 2.17517,0.05414 2.5,0 0.37134,-0.06189 0.71428,-0.238095 1.07143,-0.357143 0.71428,-0.238095 1.44378,-0.434657 2.14285,-0.714285 0.24716,-0.09886 0.46175,-0.272964 0.71429,-0.357143 0.11294,-0.03765 0.2442,0.03765 0.35714,0 0.25254,-0.08418 0.52606,-0.168912 0.71429,-0.357143 0.21344,-0.21344 -0.38603,-0.714286 0.35714,-0.714286 0.11905,0 0,0.238096 0,0.357143 0,0.234615 -0.042,1.344589 0,1.428572 0.0532,0.106479 0.27296,0.08418 0.35714,0 0.0842,-0.08418 -0.0842,-0.272964 0,-0.357143 0.0842,-0.08418 0.2381,0 0.35715,0 0.23809,0 0.47619,0 0.71428,0 1.78572,0 3.57143,0 5.35714,0 1.07143,0 2.14286,0 3.21429,0 0.47619,0 1.00265,-0.212959 1.42857,0 0.65818,0.329091 0.20152,1.318854 0.35714,1.785714 0.0532,0.159719 0.2381,0.476191 0.35715,0.357143 0.24985,-0.249855 -0.16502,-1.098533 0,-1.428572 0.81725,-1.634502 -0.14803,1.515506 0.71428,-1.071428 0.0377,-0.112939 0,-0.238095 0,-0.357143 0,-0.238095 0,-0.47619 0,-0.714286 0,-0.160842 -0.0543,-0.962738 0,-1.071428 0.0753,-0.150585 0.2381,-0.476191 0.35715,-0.357143 0.23349,0.233492 -0.40239,2.5 0.35714,2.5 0.7532,0 1.12293,-1.021052 1.42857,-1.428572 0.10102,-0.134687 0.2381,-0.238095 0.35714,-0.357142 0.5255,-0.525502 0.18879,-0.357143 1.07143,-0.357143 0.2381,0 0.4833,-0.05775 0.71429,0 0.5165,0.129125 0.90651,0.609874 1.42857,0.714285 0.35021,0.07004 0.72122,-0.07004 1.07143,0 0.26103,0.05221 0.45325,0.304937 0.71428,0.357143 0.35792,0.07158 1.67781,0 2.14286,0 0.2381,0 0.47619,0 0.71429,0 0.11904,0 0.25066,-0.05324 0.35714,0 1.24825,0.624124 -0.66498,0.04931 0.35714,1.071429 0.16836,0.168359 0.54593,-0.168359 0.71429,0 0.16836,0.168359 -0.0578,0.483299 0,0.714286 0.0646,0.25825 0.27296,0.461747 0.35714,0.714285 0.0377,0.112939 0,0.238096 0,0.357143 0,0.748313 -0.10486,1.092709 0.35714,1.785714 0.0934,0.140083 0.19743,0.303904 0.35715,0.357143 0.22587,0.07529 0.52381,0.142857 0.71428,0 1.98775,-1.490811 0.0812,-0.519455 0.71429,-1.785714 0.15058,-0.301169 0.52751,-0.43412 0.71428,-0.714286 0.066,-0.09905 -0.0842,-0.272963 0,-0.357143 0.23317,-0.233164 1.61835,-0.686391 1.78572,-0.714285 0.35228,-0.05871 0.72802,0.09811 1.07143,0 0.51191,-0.146261 0.92349,-0.545927 1.42857,-0.714286 0.22587,-0.07529 0.49322,0.08843 0.71428,0 2.90968,-1.16387 -0.6733,-0.367389 2.14286,-1.071429 0.11549,-0.02887 0.27296,-0.08418 0.35714,0 0.46363,0.463623 0.35715,0.862764 0.35715,1.428572 0,0.714286 0,1.428571 0,2.142857 0,0.357143 -0.15972,0.75199 0,1.071429 0.0532,0.106479 0.3039,-0.10648 0.35714,0 0.10648,0.212958 -0.10648,0.501326 0,0.714285 0.0532,0.10648 0.2442,-0.03765 0.35714,0 1.39087,0.463623 0.0334,0.357143 1.42857,0.357143 0.90878,0 0.93936,0.132072 1.78572,-0.714286 0.18823,-0.18823 0.16891,-0.526054 0.35714,-0.714285 0.18823,-0.188231 0.4928,-0.209483 0.71429,-0.357143 0.14008,-0.09339 0.23809,-0.238095 0.35714,-0.357143 0.11905,-0.119048 0.3039,-0.197424 0.35714,-0.357143 0.1452,-0.435596 -0.27103,-0.862038 0.35714,-1.071428 0.99078,-0.330258 2.72964,0.931129 3.57143,1.071428 0.822,0.136999 1.66829,-0.05198 2.5,0 1.85572,0.115983 4.19843,0.802715 6.07143,0 0.30949,-0.132639 0.45136,-0.50394 0.71429,-0.714286 0.33517,-0.268139 0.68751,-0.522327 1.07143,-0.714285 0.10648,-0.05324 0.27296,0.08418 0.35714,0 0.18823,-0.188231 0.16891,-0.526055 0.35714,-0.714286 0.0842,-0.08418 0.2381,0 0.35714,0 0.2381,0 0.54593,-0.168359 0.71429,0 0.16836,0.168359 0,0.47619 0,0.714286 0,0.595238 0,1.190476 0,1.785714 0,0.357143 -0.07,0.721221 0,1.071429 0.0522,0.261029 0.29258,0.456035 0.35714,0.714285 0.0578,0.230987 0,0.476191 0,0.714286 0,0.119048 -0.10648,0.303903 0,0.357143 1.35009,0.675041 1.43802,-1.92051 1.78572,-2.5 0.90251,-0.902517 0.5637,-0.413117 1.07143,-1.428572 0.0875,-0.175021 0.38706,-0.962353 0.71428,-1.071428 0.22588,-0.07529 0.47619,0 0.71429,0 0.47619,0 0.9707,-0.13082 1.42857,0 1.33149,0.380425 1.17558,1.045389 2.5,0.714286 0.62195,-0.155488 1.24207,-0.374509 1.78571,-0.714286 0.42831,-0.26769 0.71429,-0.714286 1.07143,-1.071429 0.11905,-0.119047 0.20656,-0.28185 0.35714,-0.357143 0.10648,-0.05324 0.25067,0.05324 0.35715,0 C 194.79344,40.28185 194.83164,40 195,40 c 0.33672,0 0.38762,0.632619 0.71429,0.714285 0.0894,0.02237 2.30831,0.0639 2.5,0 0.15972,-0.05324 0.21706,-0.263754 0.35714,-0.357143 0.10615,-0.07077 0.76767,-0.509022 1.07143,-0.357142 0.15058,0.07529 0.21706,0.263754 0.35714,0.357142 0.57758,0.385052 1.18301,0.727029 1.78571,1.071429 0.23113,0.132071 0.46175,0.272963 0.71429,0.357143 0.11294,0.03765 0.2381,0 0.35714,0 0.2381,0 0.4833,0.05775 0.71429,0 0.67697,-0.169243 0.95421,-0.597066 1.42857,-1.071429 0.11905,-0.119047 0.3039,-0.197423 0.35714,-0.357143 0.0753,-0.225877 -0.10648,-0.501326 0,-0.714285 0.0707,-0.141301 0.71613,0.177649 1.07143,0 0.30117,-0.150585 0.43412,-0.527509 0.71429,-0.714286 0.099,-0.06604 0.2442,0.03765 0.35714,0 0.60819,-0.202731 1.22909,-0.396215 1.78571,-0.714286 C 209.57807,38.047227 209.71983,37.686777 210,37.5 c 0.0279,-0.01862 1.69913,-0.04329 1.78571,0 0.52551,0.26275 0.35715,0.560369 0.35715,1.071428 0,0.133463 -0.0341,2.39759 0,2.5 0.0376,0.112939 0.23809,0 0.35714,0 0.2381,0 0.47619,0 0.71429,0 0.23809,0 0.54592,-0.168359 0.71428,0 0.16836,0.168359 0,0.476191 0,0.714286 0,0.952381 0,1.904762 0,2.857143 0,0.119047 -0.0842,0.272963 0,0.357143 0.0842,0.08418 0.2381,0 0.35714,0 0.11905,0 0.2381,0 0.35715,0 0.11905,0 0.27296,0.08418 0.35714,0 0.0287,-0.02868 0,-1.504603 0,-1.785715 0,-0.357143 -0.0866,-0.724949 0,-1.071428 0.0408,-0.163332 0.26375,-0.21706 0.35714,-0.357143 1.90477,-2.857143 -1.30952,1.309524 1.07143,-1.071429 0.0842,-0.08418 -0.0842,-0.272963 0,-0.357143 0.47619,-0.47619 0.35714,0.595239 0.35714,-0.357142"
       id="path3757"
       inkscape:connector-curvature="0"
       transform="translate(0,752.36218)" />
    <path
       style="fill:none;stroke:#000000;stroke-width:1px;stroke-linecap:butt;stroke-linejoin:miter;stroke-opacity:1"
       d="m 83.214286,53.928571 c 2.866995,0 1.43829,-0.117428 4.285714,0.357143 1.428572,0.238095 2.846296,0.55435 4.285714,0.714286 0.354959,0.03944 0.714286,0 1.071429,0 0.595238,0 1.190476,0 1.785714,0 0.931876,0 1.949026,0.08256 2.857143,0 0.721165,-0.06556 1.427139,-0.247033 2.142857,-0.357143 0.832003,-0.128001 1.663353,-0.264183 2.500003,-0.357143 0.59159,-0.06573 1.19047,0 1.78571,0 0.35714,0 0.72495,-0.08662 1.07143,0 0.72179,0.180447 0.35714,1.782082 0.35714,2.5 0,0.357143 0,0.714286 0,1.071428 0,0.476191 -0.0934,0.961629 0,1.428572 0.14202,0.710076 1.41872,0.357143 2.14286,0.357143 0.59524,0 1.19343,-0.05923 1.78571,0 0.60402,0.0604 1.18479,0.271296 1.78572,0.357143 0.52934,0.07562 3.94543,0.548882 5,0.357142 1.75258,-0.318651 2.88994,-1.057255 4.28571,-2.142857 0.39869,-0.310087 0.71429,-0.714285 1.07143,-1.071428 0.35714,-0.357143 0.71429,-0.714286 1.07143,-1.071429 0.2381,-0.238095 0.52751,-0.43412 0.71429,-0.714286 0.13207,-0.198107 -0.10648,-0.501326 0,-0.714285 0.36115,-0.722315 0.82881,-0.114527 1.07142,-0.357143 0.435,-0.434994 0.1673,-0.797933 0.71429,-1.071429 0.61801,-0.309003 0.27948,0.481304 0.35714,0.714286 0.0842,0.252538 0.2381,0.476191 0.35715,0.714286 0.23809,0.47619 0.44037,0.972044 0.71428,1.428571 0.22084,0.368064 0.49345,0.703365 0.71429,1.071429 0.13696,0.228263 0.13565,0.566625 0.35714,0.714285 0.19811,0.132072 0.48841,-0.07529 0.71429,0 0.34847,0.11616 0.25443,0.587068 0.71428,0.357143 0.82332,-0.411657 -0.10903,-1.374057 0.71429,-1.785714 0.10648,-0.05324 0.23809,0 0.35714,0 0.2381,0 0.47619,0 0.71429,0 0.77895,0 1.43773,0.112939 2.14285,-0.357143 0.42025,-0.280166 0.67703,-0.75591 1.07143,-1.071428 0.20787,-0.166293 0.48602,-0.220185 0.71429,-0.357143 0.36806,-0.220838 0.72804,-0.456747 1.07143,-0.714286 0.13468,-0.101015 0.20655,-0.28185 0.35714,-0.357143 0.0196,-0.0098 1.06331,-0.478895 1.42857,-0.357143 0.80183,0.267278 0.97067,0.663909 1.78571,1.071429 0.57341,0.286705 1.17166,0.530069 1.78572,0.714286 1.64492,0.493475 3.31015,0.357142 5,0.357142 0.25532,0 1.96004,0.06094 2.14286,0 0.31943,-0.106479 0.41311,-0.563701 0.71428,-0.714285 0.10648,-0.05324 0.27297,0.08418 0.35714,0 0.18824,-0.188231 0.16892,-0.526055 0.35715,-0.714286 0.0842,-0.08418 0.25809,0.06604 0.35714,0 1.77973,-1.779732 0.0306,-0.367355 1.07143,-0.714286 0.25254,-0.08418 0.44809,-0.357143 0.71428,-0.357143 0.74318,0 0.14371,0.500847 0.35715,0.714286 0.0842,0.08418 0.3039,-0.106479 0.35714,0 0.11224,0.224472 -0.11224,1.204099 0,1.428572 0.0753,0.150584 0.28185,0.206558 0.35714,0.357142 0.0532,0.10648 -0.0532,0.250664 0,0.357143 0.0753,0.150585 0.20656,0.281851 0.35715,0.357143 0.10648,0.05324 0.23809,0 0.35714,0 0.23809,0 0.48841,0.07529 0.71428,0 1.11476,-0.371586 -0.11904,-0.238095 0.35715,-0.714286 0.0842,-0.08418 0.24165,0.02887 0.35714,0 0.36522,-0.09131 0.77026,-0.131265 1.07143,-0.357142 0.21296,-0.15972 0.20948,-0.492796 0.35714,-0.714286 0.33018,-0.495268 0.69037,-0.971297 1.07143,-1.428572 0.65195,-0.782337 1.81272,-1.570119 2.5,-2.142857 C 160.15013,50.589175 160.68399,50 160.71429,50 c 0.11904,0 0,0.238095 0,0.357142 0,0.476191 0,0.952381 0,1.428572 0,0.595238 0.0978,1.198575 0,1.785714 -0.0277,0.166068 -0.30391,0.197424 -0.35715,0.357143 -0.0753,0.225877 -0.19047,0.571429 0,0.714286 0.39268,0.294507 0.95238,0.238095 1.42857,0.357143 0.95239,0.238095 1.91535,0.437285 2.85715,0.714285 1.08349,0.318675 2.12303,0.780429 3.21428,1.071429 1.50069,0.400182 2.76865,0.357143 4.28572,0.357143 0.8611,0 3.28668,0.242276 4.28571,-0.357143 0.0653,-0.03917 1.28225,-1.209084 1.42857,-1.428572 0.14766,-0.22149 0.11905,-0.595238 0.35715,-0.714285 0.31943,-0.159719 0.72122,0.07004 1.07142,0 2.6545,-0.5309 -1.80593,-0.265329 1.78572,-0.714286 0.59064,-0.07383 1.19048,0 1.78571,0 0.83334,0 1.66667,0 2.5,0 0.47619,0 0.95238,0 1.42857,0 0.11905,0 0.2381,0 0.35715,0 0.11905,0 0.25809,-0.06604 0.35714,0 1.29775,0.865166 0.50533,1.158859 1.07143,2.857143 0.13573,0.407205 0.50133,0.69875 0.71428,1.071428 0.26415,0.462251 0.3817,1.01284 0.71429,1.428572 0.18141,0.226757 1.69154,0.695452 1.78571,0.714286 0.23348,0.04669 0.48841,0.07529 0.71429,0 0.20837,-0.06945 1.10652,-1.213871 1.42857,-1.428572 1.80422,-1.202811 0.008,-0.0028 1.07143,-0.357143 0.25254,-0.08418 0.46713,-0.258279 0.71429,-0.357143 0.34953,-0.139814 0.74861,-0.163454 1.07142,-0.357142 0.28874,-0.17324 0.40166,-0.589232 0.71429,-0.714286 0.3316,-0.13264 0.73983,0.132639 1.07143,0 0.31263,-0.125054 0.43412,-0.527509 0.71428,-0.714286 0.0991,-0.06604 0.24165,0.02887 0.35715,0 0.36522,-0.0913 0.70228,-0.283312 1.07143,-0.357143 0.35124,-0.07025 2.44564,0 2.5,0 1.42857,0 2.85714,0 4.28571,0 0.2381,0 0.48081,0.0467 0.71429,0 0.54374,-0.108748 1.17156,-0.56186 1.78571,-0.357143 0.77295,0.257649 0.16116,1.393753 0.35714,1.785715 0.0753,0.150584 0.2381,0.238095 0.35715,0.357143 0.5255,0.525501 0.18878,0.357142 1.07142,0.357142 0.11905,0 0.30391,0.10648 0.35715,0 0.10648,-0.212958 -0.0467,-0.480814 0,-0.714285 0.2369,-1.184494 0.33333,-0.833334 0.71428,-1.785715 0.2904,-0.725994 0.29551,-1.157541 0.71429,-1.785714 0.57481,-0.862219 0.11905,0.119048 1.07143,-0.357143 0.10648,-0.05324 -0.0377,-0.244204 0,-0.357143 0.0842,-0.252538 0.27296,-0.461747 0.35714,-0.714285 0.0377,-0.112939 -0.0532,-0.250664 0,-0.357143 0.39483,-0.789663 0.22166,-0.110829 0.71429,-0.357143 0.15058,-0.07529 0.23809,-0.238095 0.35714,-0.357143"
       id="path3759"
       inkscape:connector-curvature="0"
       transform="translate(0,752.36218)" />
    <path
       style="fill:none;stroke:#000000;stroke-width:1px;stroke-linecap:butt;stroke-linejoin:miter;stroke-opacity:1"
       d="m 84.285714,70 c 0.864871,1.72974 0.337825,1.052109 1.428572,2.142857 0.238095,0.238095 0.394847,0.607806 0.714286,0.714285 0.451754,0.150585 0.952381,0 1.428571,0 0.357143,0 0.732613,0.112939 1.071429,0 0.407205,-0.135735 0.714285,-0.47619 1.071428,-0.714285 0.212065,-0.141377 1.569958,-0.99706 1.785714,-1.428572 0.05324,-0.106479 -0.08418,-0.272963 0,-0.357143 0.168359,-0.168358 0.516179,0.132072 0.714286,0 2.184275,-1.456183 -0.959462,0.124713 1.428572,-1.785714 0.293967,-0.235174 0.734711,-0.188784 1.071428,-0.357143 4.401258,-2.200628 -3.344272,0.99571 2.857143,-1.071428 0.407007,-0.135669 0.425335,-0.929651 1.071429,-0.714286 0.252538,0.08418 0.258279,0.467127 0.357142,0.714286 0.139815,0.349536 0.188785,0.734711 0.357143,1.071428 0.191959,0.383917 0.522323,0.687512 0.714283,1.071429 0.28398,0.567955 -0.688229,0.374512 0.35715,1.071428 0.1981,0.132072 0.47619,0 0.71428,0 0.71429,0 1.42857,0 2.14286,0 0.23809,0 0.47943,-0.03914 0.71428,0 1.78962,0.298269 1.22906,0.515763 3.21429,0.714286 0.59228,0.05923 1.19048,0 1.78571,0 0.71429,0 1.42858,0 2.14286,0 1.19048,0 2.38095,0 3.57143,0 0.11905,0 0.27296,-0.08418 0.35714,0 0.0842,0.08418 -0.0532,0.250664 0,0.357143 0.0431,0.08614 1.38613,1.417961 1.42857,1.428571 0.10216,0.02554 3.02285,0.03829 3.21429,0 0.66097,0.265274 0.65501,-0.610181 1.07143,-0.714285 0.34648,-0.08662 0.71428,0 1.07143,0 0.23809,0 0.47619,0 0.71428,0 1.19048,0 2.38096,0 3.57143,0 0.35714,0 0.78572,0.214285 1.07143,0 0.30117,-0.225877 0.2381,-0.714286 0.35714,-1.071429 0.35715,-0.238095 0.68751,-0.522327 1.07143,-0.714286 0.21296,-0.106479 0.50133,0.10648 0.71429,0 C 129.79344,70.28185 129.84028,70.053239 130,70 c 0.22588,-0.07529 0.47619,0 0.71429,0 0.23809,0 0.47619,0 0.71428,0 0.35714,0 0.73261,0.112938 1.07143,0 0.40721,-0.135736 0.68751,-0.522328 1.07143,-0.714286 0.33672,-0.168359 0.70621,-0.265838 1.07143,-0.357143 0.87414,-0.218536 -0.20022,0.728717 1.42857,-0.357143 0.0991,-0.06604 0,-0.238095 0,-0.357143 0.23809,-0.119047 0.45603,-0.29258 0.71428,-0.357143 0.23099,-0.05775 0.47619,0 0.71429,0 0.2381,0 0.47619,0 0.71429,0 0.11904,0 0.27296,-0.08418 0.35714,0 0.0842,0.08418 0,0.238096 0,0.357143 0.11905,0.119048 0.21706,0.263755 0.35714,0.357143 1.80422,1.202811 0.008,0.0028 1.07143,0.357143 2.58693,0.862312 -0.56307,-0.102966 1.07143,0.714286 0.10648,0.05324 0.23809,0 0.35714,0 0.2381,0 0.47619,0 0.71429,0 0.59524,0 1.19047,0 1.78571,0 0.47619,0 0.95238,0 1.42857,0 0.11905,0 0.27297,0.08418 0.35715,0 0.0842,-0.08418 -0.0842,-0.272964 0,-0.357143 0.0842,-0.08418 0.23809,0 0.35714,0 0.23809,0 0.47619,0 0.71428,0 1.30953,0 2.61905,0 3.92858,0 0.34486,0 2.24854,-0.08382 2.5,0 0.25253,0.08418 0.45603,0.29258 0.71428,0.357143 0.46197,0.115493 0.96163,-0.09339 1.42857,0 0.36915,0.07383 0.70009,0.295253 1.07143,0.357143 0.35229,0.05871 0.71429,0 1.07143,0 0.71429,0 1.42857,0 2.14286,0 0.83333,0 1.66666,0 2.5,0 0.23809,0 0.48841,-0.07529 0.71428,0 0.15972,0.05324 0.19743,0.303903 0.35715,0.357142 0.22587,0.07529 0.47619,0 0.71428,0 0.59524,0 1.19048,0 1.78572,0 2.02381,0 4.04762,0 6.07142,0 0.95239,0 1.90477,0 2.85715,0 0.0849,0 1.34852,-0.04002 1.42857,0 0.15058,0.07529 0.20656,0.281851 0.35714,0.357143 0.10648,0.05324 0.2381,0 0.35714,0 0.30469,0 2.36731,-0.06635 2.5,0 1.04319,0.521592 -0.59828,0.733619 1.42858,1.071429 0.46971,0.07829 0.95238,0 1.42857,0 0.23809,0 0.4833,0.05775 0.71428,0 0.25825,-0.06456 0.45326,-0.304937 0.71429,-0.357143 0.46694,-0.09339 0.95238,0 1.42857,0 0.35714,0 0.73261,-0.112938 1.07143,0 0.4072,0.135735 0.66422,0.578551 1.07143,0.714286 0.68698,0.228992 1.44034,0.181513 2.14285,0.357143 2.28041,0.570101 -1.59157,0.357142 2.14286,0.357142 0.2381,0 0.47619,0 0.71429,0 0.23809,0 0.51618,0.132072 0.71428,0 0.43756,-0.291701 0.16568,-0.888558 0.71429,-1.071428 0.45175,-0.150585 0.9666,0.115493 1.42857,0 0.67697,-0.169243 0.95421,-0.597066 1.42857,-1.071429 0.11905,-0.119047 0.26376,-0.21706 0.35714,-0.357143 0.14766,-0.22149 0.27297,-0.461747 0.35715,-0.714285 0.2199,-0.659719 -0.54497,-0.169321 0.35714,-1.071429 0.0842,-0.08418 0.35714,-0.119047 0.35714,0 0,0.168359 -0.3039,0.197424 -0.35714,0.357143 -0.0753,0.225877 0.0753,0.488409 0,0.714286 -0.10672,0.320159 -0.94939,0.479181 -0.35714,1.071428 0.11905,0.119048 0.23809,-0.238095 0.35714,-0.357143 0.16084,-0.160842 0.90839,-1.017083 1.07143,-1.071428 0.22588,-0.07529 0.47619,0 0.71428,0 0.97476,0 0.37303,-0.04421 2.14286,0.714286 0.24468,0.10486 0.45604,0.29258 0.71429,0.357142 0.23098,0.05775 0.47619,0 0.71428,0 0.99091,0 1.01042,0.15972 1.78572,-0.357142 0.65347,-0.435652 0.0356,-0.455337 1.07143,-0.714286 0.27159,-0.0679 1.48664,0 1.78571,0 0.30238,0 1.23657,-0.064 1.42857,0 0.15972,0.05324 0.3039,0.197424 0.35714,0.357143 0.0514,0.154038 0,2.360353 0,2.5 0,0.119047 0,0.238095 0,0.357143 0,0.119047 -0.0842,0.272963 0,0.357142 0.0842,0.08418 0.27297,0.08418 0.35715,0 0.18823,-0.18823 0.19742,-0.501326 0.35714,-0.714285 0.20203,-0.269374 0.58923,-0.401652 0.71429,-0.714286 0.1199,-0.299767 -0.30907,-1.26202 0.35714,-1.428571 0.34648,-0.08662 0.71428,0 1.07143,0 0.23809,0 0.48841,0.07529 0.71428,0 0.15972,-0.05324 0.2381,-0.238096 0.35715,-0.357143 0.11904,-0.119048 0.3039,-0.197424 0.35714,-0.357143 0.27778,-0.833333 -0.37699,-0.714286 0.35714,-0.714286"
       id="path3761"
       inkscape:connector-curvature="0"
       transform="translate(0,752.36218)" />
    <path
       style="fill:none;stroke:#000000;stroke-width:1px;stroke-linecap:butt;stroke-linejoin:miter;stroke-opacity:1"
       d="m 86.785714,85.714285 c 1.190477,0 2.380953,0 3.571429,0 0.357143,0 0.714286,0 1.071429,0 0.119047,0 0.250663,-0.05324 0.357142,0 0.425224,0.212612 0.498377,0.714286 0.357143,0.714286 -0.119047,0 0,-0.238095 0,-0.357143 0,-0.238095 -0.106479,-0.501327 0,-0.714285 0.05324,-0.10648 0.250664,0.05324 0.357143,0 0.476191,-0.238096 0.258521,-0.763597 1.071429,-0.357143 0.646488,0.323244 1.139226,1.46247 1.785714,1.785714 0.542941,0.27147 1.202044,0.19038 1.785714,0.357143 0.255957,0.07313 0.45833,0.284012 0.714286,0.357143 5.630387,1.126078 -0.328759,-0.228634 2.499997,0.714285 0.22588,0.07529 0.50133,-0.106479 0.71429,0 0.15058,0.07529 0.20656,0.281851 0.35714,0.357143 0.10648,0.05324 0.27297,-0.08418 0.35714,0 0.79366,0.793651 -0.19841,0.753968 1.07143,1.071429 0.29043,0.07261 1.76899,0 2.14286,0 0.2381,0 0.50133,-0.10648 0.71429,0 0.10648,0.05324 -0.0442,0.24661 0,0.357143 0.24087,0.602192 1.00122,2.264653 1.78571,2.5 0.79819,0.239456 1.66829,-0.05198 2.5,0 1.07592,0.06724 2.13865,0.428851 3.21429,0.357143 0.75125,-0.05008 1.4242,-0.489708 2.14285,-0.714286 1.18632,-0.370724 2.37636,-0.72998 3.57143,-1.071429 0.47196,-0.134846 0.94073,-0.302938 1.42857,-0.357143 0.5916,-0.06573 1.19048,0 1.78572,0 0.83333,0 1.66666,0 2.5,0 0.86757,0 1.23275,-0.518462 1.78571,-1.071428 0.11905,-0.119048 0.2381,-0.238095 0.35714,-0.357143 0.11905,-0.119048 0.28186,-0.206558 0.35715,-0.357143 0.0532,-0.106479 0,-0.238095 0,-0.357143 0,-0.119047 0,-0.238095 0,-0.357143 0,-0.238095 0.22587,-0.638993 0,-0.714285 -0.67763,-0.225877 -1.42857,0 -2.14286,0 -0.83333,0 -1.69155,-0.202113 -2.5,0 -0.67343,0.168358 -1.16484,0.76099 -1.78571,1.071428 -0.81093,0.405462 -1.72257,0.604967 -2.5,1.071429 -4.70633,2.823795 1.9186,-0.196015 -2.14286,1.428571 -0.24716,0.09886 -0.47619,0.476191 -0.71429,0.357143 -0.21296,-0.106479 -0.0337,-0.478583 0,-0.714286 0.36562,-2.559317 -0.0402,-1.110514 1.07143,-2.5 0.26814,-0.335174 0.55487,-0.672896 0.71429,-1.071428 0.14456,-0.361407 -0.27058,-0.914498 0.35714,-1.071429 0.34648,-0.08662 0.72495,0.08662 1.07143,0 0.62195,-0.155487 1.16929,-0.538164 1.78571,-0.714285 0.22894,-0.06541 0.47619,0 0.71429,0 0.71428,0 1.42857,0 2.14286,0 0.59523,0 1.19047,0 1.78571,0 0.35714,0 0.79255,-0.223106 1.07143,0 0.41573,0.332585 0.49806,0.94206 0.71428,1.428571 0.80811,0.919095 0.62655,2.176217 1.07143,3.214286 0.16909,0.394526 0.55488,0.672896 0.71429,1.071428 0.0884,0.221066 -0.0753,0.488409 0,0.714286 0.0532,0.159719 0.23809,0.238095 0.35714,0.357143 0.11905,0.119047 0.18879,0.357143 0.35714,0.357143 0.11905,0 -0.0376,-0.244205 0,-0.357143 0.0842,-0.252538 0.16892,-0.526055 0.35715,-0.714286 3.4e-4,-3.41e-4 1.06981,5.4e-4 1.07143,0 0.15972,-0.05324 0.23809,-0.238095 0.35714,-0.357143 0.23809,-0.238095 0.43412,-0.527508 0.71428,-0.714285 0.44299,-0.295321 0.9771,-0.432116 1.42858,-0.714286 2.77854,-1.736589 0.39639,-0.388546 2.14285,-1.785714 2.2135,-1.770799 0.1166,0.04132 1.78572,-1.071429 0.14008,-0.09339 0.20656,-0.281851 0.35714,-0.357143 0.62925,-0.314626 0.28912,0.510204 0.35714,0.714286 0.37159,1.114757 0.2381,-0.119048 0.71429,0.357143 0.009,0.0089 0,1.651543 0,1.785714 0,0.357143 0,0.714286 0,1.071429 0,0.119047 -0.11905,0.357142 0,0.357142 0.50773,0 1.16828,-0.811142 1.42857,-1.071428 0.2381,-0.238095 0.51226,-0.444912 0.71429,-0.714286 0.15972,-0.212959 0.13565,-0.566625 0.35714,-0.714286 0.19811,-0.132071 0.47619,0 0.71428,0 0.11905,0 0.2381,0 0.35715,0 0.39737,0 2.3002,0.0666 2.5,0 0.4072,-0.135735 0.73625,-0.446146 1.07143,-0.714285 1.1033,-0.882645 0.22153,-0.714286 1.42857,-0.714286 0.11904,0 0.3039,-0.106479 0.35714,0 0.10648,0.212959 0,0.47619 0,0.714286 0,0.714285 0,1.428571 0,2.142857 0,0.238095 -0.13207,0.516178 0,0.714286 0.14766,0.22149 0.4928,0.209482 0.71429,0.357142 0.78825,0.525502 -0.18281,0.357143 1.07142,0.357143 0.2381,0 0.48841,-0.07529 0.71429,0 0.25254,0.08418 0.46175,0.272964 0.71429,0.357143 0.11293,0.03765 0.23809,0 0.35714,0 0.83333,0 1.66667,0 2.5,0 0.71428,0 1.42857,0 2.14286,0 0.35714,0 0.72495,0.08662 1.07142,0 1.42701,-0.356751 0.005,-0.359884 1.42858,-1.071428 0.21295,-0.10648 0.4833,0.05775 0.71428,0 0.25825,-0.06456 0.45604,-0.292581 0.71429,-0.357143 0.23098,-0.05775 0.4833,0.05775 0.71428,0 0.25825,-0.06456 0.45604,-0.292581 0.71429,-0.357143 0.23099,-0.05775 0.47619,0 0.71428,0 0.71429,0 1.42858,0 2.14286,0 0.2381,0 0.48841,0.07529 0.71429,0 1.5765,-0.525502 -1.29756,-0.357143 1.07143,-0.357143 0.11904,0 -0.44133,0.08418 -0.35715,0 0.18823,-0.188231 0.4928,-0.209483 0.71429,-0.357143 0.14008,-0.09339 0.23809,-0.238095 0.35714,-0.357143 0.2381,-0.119047 0.4928,-0.209482 0.71429,-0.357143 0.14008,-0.09339 0.19742,-0.303903 0.35714,-0.357142 0.22588,-0.07529 0.47619,0 0.71429,0 0.23809,0 0.47619,0 0.71428,0 0.95238,0 1.90949,-0.09477 2.85714,0 4.72636,0.472636 -1.81342,0.357142 2.85715,0.357142 0.59524,0 1.19047,0 1.78571,0 0.2381,0 0.4833,0.05775 0.71429,0 0.23572,-0.05893 1.0666,-0.71911 1.42857,-0.357142 0.16836,0.168358 -0.0216,0.477168 0,0.714285 0.0976,1.073595 0.28543,2.138652 0.35714,3.214286 0.0475,0.712704 -0.0647,1.431505 0,2.142857 0.45053,4.955847 0.35714,-0.941868 0.35714,3.214286 0,0.238095 -0.0654,-0.485352 0,-0.714286 0.17613,-0.616424 0.54561,-1.167213 0.71429,-1.785714 0.19053,-0.698623 0.24703,-1.427139 0.35714,-2.142857 0.128,-0.832005 0.20656,-1.671785 0.35715,-2.5 0.0878,-0.482929 0.28772,-0.942659 0.35714,-1.428572 0.0505,-0.353553 0,-0.714285 0,-1.071428 0,-1.071429 0,-2.142857 0,-3.214286 0,-0.183702 -0.19631,-1.428571 0.35714,-1.428571 0.11905,0 0,0.238095 0,0.357142 0,0.357143 -0.0775,0.722791 0,1.071429 0.16333,0.734994 0.34864,1.484684 0.71429,2.142857 0.24528,0.441516 0.74273,0.687946 1.07143,1.071429 0.38737,0.451938 0.65053,1.007674 1.07142,1.428571 0.57864,0.578634 2.84064,1.598887 3.21429,1.785714 0.2381,0.119048 0.45171,0.31338 0.71429,0.357143 C 190.67244,91.48112 190,90.390554 190,88.214285 c 0,-0.595238 0.0842,-1.196458 0,-1.785714 -0.0735,-0.51439 -1.42694,-2.138782 -1.42857,-2.142857 -0.0625,-0.156317 0.19381,-0.31631 0.35714,-0.357143 0.34648,-0.08662 0.71429,0 1.07143,0 0.35714,0 0.73261,-0.112938 1.07143,0 0.11294,0.03765 -0.0376,0.244204 0,0.357143 0.0842,0.252538 0.30494,0.453256 0.35714,0.714286 0.07,0.350207 0,0.714285 0,1.071428 0,0.595238 0,1.190476 0,1.785715 0,0.511058 -0.16836,0.808677 0.35714,1.071428 0.17357,0.08678 2.39296,0 2.85715,0 0.23809,0 0.50132,-0.106479 0.71428,0 0.30117,0.150585 0.45562,0.498725 0.71429,0.714286 0.45727,0.381062 0.89617,0.80523 1.42857,1.071428 0.64115,0.320573 2.45075,0.484399 3.21429,0.357143 0.37134,-0.06189 0.73471,-0.188784 1.07142,-0.357143 0.38392,-0.191958 0.6729,-0.554872 1.07143,-0.714285 0.22107,-0.08843 0.48082,0.04669 0.71429,0 0.36915,-0.07383 0.72189,-0.217329 1.07143,-0.357143 0.24716,-0.09886 0.49279,-0.209483 0.71428,-0.357143 0.14009,-0.09339 0.19743,-0.303903 0.35715,-0.357143 0.22587,-0.07529 0.47943,0.03914 0.71428,0 0.99878,-0.166463 2.25737,-0.468938 2.85714,-1.428571 0.32173,-0.514757 0.11061,-1.231007 0.35715,-1.785715 0.24175,-0.543935 0.74125,-0.933303 1.07143,-1.428571 0.33764,-0.506463 0.99572,-2.348583 1.07142,-2.5 0.0532,-0.106479 0.0377,0.244204 0,0.357143 -0.0842,0.252538 -0.22018,0.486022 -0.35714,0.714286 -0.22084,0.368063 -0.59636,0.658711 -0.71428,1.071428 -0.13082,0.457869 0.11549,0.966599 0,1.428572 -0.97215,3.888599 -0.36583,-0.688225 -1.42858,2.5 -0.11293,0.338815 0,0.714285 0,1.071428 0,0.119048 0.11905,0.357143 0,0.357143 -0.11904,0 0,-0.238095 0,-0.357143 0,-0.357143 -0.15971,-0.75199 0,-1.071428 0.0532,-0.10648 0.25067,0.05324 0.35715,0 C 210.69386,87.331641 209.08847,87.5 210.71429,87.5"
       id="path3763"
       inkscape:connector-curvature="0"
       transform="translate(0,752.36218)" />
    <path
       style="fill:none;stroke:#000000;stroke-width:1px;stroke-linecap:butt;stroke-linejoin:miter;stroke-opacity:1"
       d="m 83.571429,858.07647 c 5.016183,0 -1.561821,-0.15058 2.5,0.35714 0.590641,0.0738 1.190476,0 1.785714,0 0.833333,0 1.666667,0 2.5,0 0.714286,0 1.432116,0.0711 2.142857,0 0.48841,-0.0488 0.944404,-0.27645 1.428571,-0.35714 0.45905,-0.0765 2.142858,0.29275 2.142858,-0.35714 0,-0.30915 -0.463966,0.0234 -0.714286,0.35714 -0.597793,0.79706 -1.033119,1.57728 -1.428572,2.5 -0.296591,0.69205 -0.47619,1.42857 -0.714285,2.14286 -0.119048,0.35714 -0.265838,0.7062 -0.357143,1.07143 -0.02887,0.11549 0.119047,0.35714 0,0.35714 -0.119048,0 0,-0.2381 0,-0.35714 0,-0.35715 0,-0.71429 0,-1.07143 0,-0.9194 -0.248623,-2.04946 0.357143,-2.85715 0.20203,-0.26937 0.47619,-0.47619 0.714285,-0.71428 0.119048,-0.11905 0.206559,-0.28185 0.357143,-0.35714 0.10648,-0.0532 0.238096,0 0.357143,0 0.119048,0 0.238095,0 0.357143,0 0.47619,0 0.952381,0 1.428571,0 1.071429,0 2.142858,0 3.214286,0 0.714283,0 1.436883,0.10861 2.142853,0 0.85661,-0.13179 1.6592,-0.50409 2.50001,-0.71429 0.5889,-0.14723 1.20984,-0.16518 1.78571,-0.35714 1.08009,-0.36003 1.58882,-1.22162 2.85714,-0.71429 0.5641,0.22564 0.29378,1.53225 0.35715,1.78572 0.0408,0.16333 0.28185,0.20655 0.35714,0.35714 0.0532,0.10648 0,0.23809 0,0.35714 0,0.11905 0,0.2381 0,0.35714 0,0.11905 0,0.47619 0,0.35715 0,-0.2381 0,-0.47619 0,-0.71429 0,-0.35714 0.0866,-0.72495 0,-1.07143 -0.0408,-0.16333 -0.2381,-0.23809 -0.35714,-0.35714 -0.11905,-0.11905 -0.28185,-0.20656 -0.35715,-0.35714 -0.0532,-0.10648 0,-0.47619 0,-0.35715 0,0.95238 0,1.90477 0,2.85715 0,0.71428 -0.27472,1.48351 0,2.14285 0.35762,0.85827 1.15744,1.45746 1.78572,2.14286 0.68258,0.74464 1.42857,1.42857 2.14286,2.14286 0.23809,0.23809 0.40479,0.58164 0.71428,0.71428 0.55795,0.23912 1.18695,0.25735 1.78572,0.35715 0.11742,0.0196 0.23809,0 0.35714,0 0.35714,0 0.75199,0.15972 1.07143,0 0.23809,-0.11905 0.19742,-0.50133 0.35714,-0.71429 1.92669,-2.56892 -0.39656,0.75371 1.42857,-1.07143 0.18823,-0.18823 0.26368,-0.46503 0.35714,-0.71428 0.26437,-0.70499 0.37757,-1.46943 0.71429,-2.14286 3.3687,-6.7374 0.13383,0.1564 2.14286,-2.85714 0.29532,-0.44298 0.37345,-1.01958 0.71428,-1.42857 0.27479,-0.32975 0.81389,-0.3709 1.07143,-0.71429 0.14286,-0.19048 -0.10648,-0.50133 0,-0.71429 0.0532,-0.10648 0.2381,0 0.35714,0 0.11905,0 0.27297,-0.0842 0.35715,0 0.0842,0.0842 0,0.2381 0,0.35715 0,0.35714 0,0.71428 0,1.07143 0,0.83333 0,1.66666 0,2.5 0,0.59523 0,1.19047 0,1.78571 0,0.23809 -0.0884,0.49322 0,0.71429 0.15941,0.39853 0.45674,0.72804 0.71428,1.07142 0.10102,0.13469 0.19381,0.31631 0.35715,0.35715 0.94692,0.23673 1.26067,-0.1366 2.14285,-0.35715 0.1155,-0.0289 0.25067,0.0532 0.35715,0 0.15058,-0.0753 0.23809,-0.23809 0.35714,-0.35714 0.23809,-0.23809 0.47619,-0.47619 0.71428,-0.71428 0.11905,-0.11905 0.21706,-0.26376 0.35715,-0.35715 0.0665,-0.0443 1.40568,-0.6914 1.42857,-0.71428 0.18823,-0.18823 0.13565,-0.56663 0.35714,-0.71429 0.19811,-0.13207 0.50133,0.10648 0.71429,0 0.47653,-0.23827 -0.75036,-0.71428 0.35714,-0.71428 0.2381,0 0.51618,-0.13208 0.71429,0 0.2388,0.1592 0.67841,1.72294 0.71428,1.78571 0.29532,0.51681 0.72546,0.94421 1.07143,1.42857 0.65246,0.91344 1.2964,2.1991 2.5,2.5 0.34648,0.0866 0.71429,0 1.07143,0 0.11905,0 0.27296,0.0842 0.35714,0 0.073,-0.073 -0.0708,-0.92982 0,-1.07143 0.0753,-0.15058 0.2381,-0.23809 0.35714,-0.35714 0.35715,-0.35714 0.67703,-0.75591 1.07143,-1.07143 0.20787,-0.16629 0.47619,-0.23809 0.71429,-0.35714 0.59524,-0.35714 1.25867,-0.61968 1.78571,-1.07143 0.3259,-0.27934 0.36501,-0.82194 0.71429,-1.07143 0.52168,-0.37263 1.22909,-0.39621 1.78571,-0.71428 0.29236,-0.16706 0.43412,-0.52751 0.71429,-0.71429 0.0991,-0.066 0.2442,0.0376 0.35714,0 0.25254,-0.0842 0.46175,-0.44132 0.71429,-0.35714 0.25254,0.0842 0.20948,0.49279 0.35714,0.71428 0.0934,0.14009 0.28185,0.20656 0.35714,0.35715 0.11061,0.22121 -0.10567,1.32289 0,1.42857 1.39384,1.39383 0.19181,-0.0827 1.07143,0.35714 0.54484,0.27242 0.20741,0.86402 1.07143,0 3.4e-4,-3.4e-4 -5.4e-4,-1.06981 0,-1.07143 0.0532,-0.15972 0.28185,-0.20656 0.35714,-0.35714 0.16836,-0.33672 0.18879,-0.73471 0.35715,-1.07143 0.16242,-0.32485 1.35691,-1.01768 1.42857,-1.07143 0.49491,-0.37118 0.28634,-0.55727 1.07143,-0.71428 0.3502,-0.0701 0.71428,0 1.07142,0 1.19048,0 2.38096,0 3.57143,0 0.26217,0 2.01835,-0.0623 2.14286,0 0.8326,0.41629 0.16425,1.46773 0.35714,2.14285 0.0925,0.32376 0.60781,0.39485 0.71429,0.71429 0.15058,0.45175 -0.13082,0.9707 0,1.42857 0.0716,0.25056 1.1521,1.94412 1.78571,1.78571 2.61671,-0.65417 0.0714,-0.42858 0.71429,-1.07142 1.74999,-0.875 0.29872,0.11683 0.71428,-0.71429 0.0753,-0.15058 0.2381,-0.2381 0.35715,-0.35714 0.23809,-0.2381 0.41311,-0.5637 0.71428,-0.71429 0.21296,-0.10648 0.52381,0.14286 0.71429,0 0.34338,-0.25754 0.41077,-0.76791 0.71428,-1.07143 0.30352,-0.30351 0.73626,-0.44614 1.07143,-0.71428 0.26294,-0.21035 0.43412,-0.52751 0.71429,-0.71429 0.0991,-0.066 0.2442,0.0377 0.35714,0 0.25254,-0.0842 0.46175,-0.27296 0.71429,-0.35714 0.0936,-0.0312 0.96837,-0.0258 1.07143,0 0.36522,0.0913 0.70009,0.29525 1.07142,0.35714 0.35229,0.0587 0.71429,0 1.07143,0 1.19048,0 2.38096,0 3.57143,0 0.0613,0 2.0119,-0.0436 2.14286,0 0.15972,0.0532 0.20656,0.28185 0.35714,0.35714 0.10222,0.0511 1.59493,0 1.78572,0 0.11904,0 0.3039,-0.10648 0.35714,0 0.16059,0.32119 -0.1606,1.82167 0,2.14286 0.0532,0.10648 0.23809,0 0.35714,0 0.0999,0 1.72984,-0.0279 1.78572,0 0.10648,0.0532 0,0.2381 0,0.35714 0,0.11905 0,0.2381 0,0.35715 0,0.80687 -0.0532,-0.15972 0.35714,1.07143 0.0377,0.11293 -0.10648,0.3039 0,0.35714 0.21296,0.10648 0.47619,0 0.71428,0 0.60589,0 1.29499,0.13359 1.78572,-0.35714 0.0842,-0.0842 -0.0842,-0.27297 0,-0.35715 0.0842,-0.0842 0.23809,0 0.35714,0 0.31919,0 1.6719,0.0569 1.78572,0 4.28871,-2.14435 -1.53615,0.56455 1.78571,-1.42857 0.32281,-0.19369 0.77026,-0.13126 1.07143,-0.35714 0.21296,-0.15972 0.16891,-0.52606 0.35714,-0.71429 0.0842,-0.0842 0.25067,0.0532 0.35714,0 0.15059,-0.0753 0.20656,-0.28185 0.35715,-0.35714 0.10648,-0.0532 0.25809,0.066 0.35714,0 0.28017,-0.18678 0.47619,-0.47619 0.71429,-0.71429 0.23809,-0.23809 0.47619,-0.47619 0.71428,-0.71428 0.2381,-0.2381 0.47619,-0.47619 0.71429,-0.71429 0.23809,-0.23809 0.44491,-0.51225 0.71428,-0.71428 0.21296,-0.15972 0.4928,-0.20949 0.71429,-0.35715 0.14008,-0.0934 0.19742,-0.3039 0.35714,-0.35714 0.22588,-0.0753 0.47619,0 0.71429,0 0.11905,0 0.32827,-0.11549 0.35714,0 0.0694,0.27778 -0.0521,2.08333 0,2.5 0.0753,0.60234 0.2713,1.18479 0.35714,1.78572 0.0337,0.2357 -0.0753,0.4884 0,0.71428 0.009,0.028 1.04341,1.06209 1.07143,1.07143 0.22588,0.0753 0.47619,0 0.71429,0 0.23809,0 0.47619,0 0.71428,0 0.11905,0 0.25809,0.066 0.35715,0 2.07074,-1.3805 0.26446,-0.17179 0.71428,-1.07143 0.0753,-0.15058 0.28185,-0.20656 0.35714,-0.35714 0.0532,-0.10648 -0.10647,-0.3039 0,-0.35714 0.21296,-0.10648 0.48841,0.0753 0.71429,0 0.53383,-0.17795 0.94651,-1.76811 1.07143,-2.14286 0.11905,-0.35714 0.21733,-0.72189 0.35714,-1.07143 0.0989,-0.24716 0.29258,-0.45604 0.35714,-0.71429 0.0577,-0.23098 -0.10647,-0.50132 0,-0.71428 0.15059,-0.30117 0.43412,-0.52751 0.71429,-0.71429 0.0991,-0.066 0.3039,0.10648 0.35714,0 0.17765,-0.3553 -0.1413,-1.00078 0,-1.07143 0.21296,-0.10648 0.47619,0 0.71429,0 0.11905,0 0.27296,-0.0842 0.35714,0 0.0842,0.0842 -0.0842,0.27297 0,0.35715 0.0842,0.0842 0.2381,0 0.35714,0 0.11905,0 0.27297,0.0842 0.35715,0 0.18823,-0.18823 0.20948,-0.4928 0.35714,-0.71429 0.0934,-0.14008 0.2381,-0.23809 0.35714,-0.35714 0.11905,-0.11905 0.28185,-0.50773 0.35715,-0.35714 0.0904,0.18077 0,1.75322 0,2.14285 0,0.11905 -0.0842,0.27297 0,0.35715 0.0842,0.0842 0.27296,-0.0842 0.35714,0 0.0842,0.0842 0,0.23809 0,0.35714 0,0.11905 0,0.23809 0,0.35714"
       id="path3765"
       inkscape:connector-curvature="0" />
    <path
       style="fill:none;stroke:#000000;stroke-width:1px;stroke-linecap:butt;stroke-linejoin:miter;stroke-opacity:1"
       d="m 83.928572,127.5 c 0.61487,0.85951 0.84261,1.9782 1.428571,2.85714 0.09339,0.14009 0.263754,0.21706 0.357143,0.35715 0.14766,0.22149 0.168912,0.52605 0.357143,0.71428 0.08418,0.0842 0.250663,-0.0532 0.357143,0 0.150584,0.0753 0.188784,0.35714 0.357142,0.35714 0.04202,0 -0.05252,-1.0189 0,-1.07142 0.640166,-0.64017 1.013156,-0.0962 1.785715,-0.71429 0.394398,-0.31552 0.735874,-0.69393 1.071428,-1.07143 0.955361,-1.07478 1.78014,-2.01452 2.5,-3.21428 C 92.279815,125.48602 92.35234,125.22149 92.5,125 c 0.09339,-0.14008 0.303903,-0.19742 0.357143,-0.35714 0.07529,-0.22588 -0.106479,-0.50133 0,-0.71429 0.05324,-0.10648 0.250663,-0.0532 0.357143,0 0.525501,0.26275 0.357143,0.56037 0.357143,1.07143 0,0.83333 0,1.66667 0,2.5 0,0.23809 -0.198107,0.58221 0,0.71429 0.297161,0.1981 0.714285,0 1.071428,0 0.119048,0 0.24165,0.0289 0.357143,0 0.365222,-0.0913 0.706207,-0.26584 1.071429,-0.35715 0.156853,-0.0392 2.448953,-0.40814 2.857143,-0.71428 0.212958,-0.15972 0.135652,-0.56663 0.357142,-0.71429 0.198108,-0.13207 0.638994,-0.22588 0.714286,0 0.22588,0.67763 0,1.42857 0,2.14286 0,1.42857 0,2.85714 0,4.28571 0,0.47619 0,0.95238 0,1.42857 0,0.11905 -0.08418,0.44133 0,0.35715 0.6369,-0.6369 0.1961,-0.98049 0.35714,-1.78572 0.0522,-0.26103 0.27297,-0.46174 0.35715,-0.71428 0.0376,-0.11294 -0.0376,-0.24421 0,-0.35715 0.0842,-0.25253 0.29258,-0.45603 0.35714,-0.71428 0.0577,-0.23099 -0.10648,-0.50133 0,-0.71429 0.0532,-0.10648 0.25809,0.066 0.35714,0 1.32397,-0.88264 0.0655,-0.71428 1.42857,-0.71428 0.35715,0 0.76134,-0.1772 1.07143,0 1.49974,0.85699 1.20311,1.426 2.14286,2.5 0.55432,0.63351 1.09609,1.30297 1.78571,1.78571 0.52521,0.36764 1.19988,0.45392 1.78572,0.71429 2.20609,0.98048 0.62212,0.71428 3.21428,0.71428 0.98329,0 -0.54537,0.0377 1.42857,-0.35714 0.23348,-0.0467 0.48841,0.0753 0.71429,0 0.15972,-0.0532 0.21706,-0.26375 0.35714,-0.35714 0.22149,-0.14766 0.46175,-0.27297 0.71429,-0.35715 0.60804,-0.20268 1.24234,0.57845 1.78571,0.71429 0.23099,0.0577 0.47619,0 0.71429,0 0.87681,0 0.61723,0.10648 1.42857,-0.35714 1.93615,-1.10637 1.36195,-0.64767 2.5,-1.78572 0.11905,-0.11905 0.28185,-0.20656 0.35714,-0.35714 0.44982,-0.89964 -1.35646,0.30907 0.71429,-1.07143 0.099,-0.066 0.23809,0 0.35714,0 0.11905,0 0.3039,-0.10648 0.35714,0 0.10648,0.21296 0,0.47619 0,0.71429 0,0.47619 -0.11549,0.9666 0,1.42857 0.0289,0.11549 0.30391,0.10648 0.35715,0 0.21951,-0.43903 0.20192,-0.96292 0.35714,-1.42857 0.16836,-0.50508 0.54593,-0.9235 0.71429,-1.42857 0.0753,-0.22588 -0.10648,-0.50133 0,-0.71429 0.0753,-0.15058 0.18878,-0.35714 0.35714,-0.35714 0.16836,0 0.25613,0.22245 0.35714,0.35714 0.25754,0.34339 0.47619,0.71429 0.71429,1.07143 0.23809,0.59524 0.35867,1.25229 0.71428,1.78571 0.14766,0.22149 0.4928,0.20949 0.71429,0.35715 1.71428,1.14285 0.79524,1.07142 1.78571,1.07142 0.35715,0 0.72122,0.0701 1.07143,0 0.98039,-0.19607 0.56723,-0.39916 1.07143,-1.07142 0.20203,-0.26938 0.51226,-0.44492 0.71429,-0.71429 0.15972,-0.21296 0.16891,-0.52606 0.35714,-0.71429 0.30351,-0.30351 0.73625,-0.44614 1.07143,-0.71428 0.26293,-0.21035 0.42555,-0.54105 0.71428,-0.71429 0.32282,-0.19369 0.73471,-0.18878 1.07143,-0.35714 0.15059,-0.0753 0.19381,-0.31631 0.35714,-0.35714 0.34648,-0.0866 0.71429,0 1.07143,0 0.11905,0 0.24421,-0.0377 0.35715,0 0.25253,0.0842 0.50132,0.19742 0.71428,0.35714 0.26938,0.20203 0.40165,0.58923 0.71429,0.71429 0.3316,0.13263 0.71428,0 1.07143,0 0.71428,0 1.42857,0 2.14285,0 0.11905,0 0.2381,0 0.35715,0 0.11904,0 0.27296,-0.0842 0.35714,0 0.18823,0.18823 0.20948,0.49279 0.35714,0.71428 0.0934,0.14008 0.26376,0.21706 0.35714,0.35714 0.67329,1.00994 -0.10439,0.68819 1.42858,1.07143 0.15026,0.0376 1.41507,0.003 1.42857,0 0.25825,-0.0646 0.45603,-0.29258 0.71428,-0.35714 0.23099,-0.0577 0.47619,0 0.71429,0 0.23809,0 0.47619,0 0.71428,0 0.11905,0 0.27297,-0.0842 0.35715,0 0.0842,0.0842 -0.10648,0.3039 0,0.35714 0.21296,0.10648 0.47619,0 0.71428,0 0.11905,0 0.2381,0 0.35715,0 0.11904,0 0.27296,0.0842 0.35714,0 0.87499,-1.74999 -0.11684,-0.29872 0.71428,-0.71428 0.15059,-0.0753 0.18879,-0.35715 0.35715,-0.35715 0.0738,0 -0.0857,1.97151 0,2.14286 0.15404,0.30809 0.49384,-0.1367 0.71428,-0.35714 0.11905,-0.11905 0.31631,-0.19381 0.35715,-0.35714 0.41326,-1.65305 -0.44736,-0.62408 0.35714,-1.42858 0.1936,-0.19359 0.36395,-0.53231 0.71428,-0.35714 0.40823,0.20411 0.42342,0.97202 1.07143,0 0.13207,-0.19811 -0.13207,-0.51618 0,-0.71428 0.14766,-0.2215 0.52606,-0.16892 0.71429,-0.35715 0.21344,-0.21344 -0.38603,-0.71428 0.35714,-0.71428 1.06663,0 0.60433,0.27447 0.71429,0.71428 0.0913,0.36522 0.18878,0.73471 0.35714,1.07143 0.47379,0.94757 3.0184,0.92167 3.57143,0.71429 0.4019,-0.15072 0.41077,-0.76792 0.71428,-1.07143 5.95994,-5.95994 0.28245,-0.75584 2.85715,-1.78572 1.04372,-0.41748 1.89142,-1.95771 3.21428,-1.42857 0.31264,0.12506 0.44491,0.51226 0.71429,0.71429 0.21296,0.15972 0.56662,0.13565 0.71428,0.35714 0.13208,0.19811 -0.10647,0.50133 0,0.71429 0.0532,0.10648 0.25067,-0.0532 0.35715,0 0.15058,0.0753 0.28185,0.20656 0.35714,0.35714 0.47619,0.95238 -0.47619,0 0,0 0.11905,0 -0.11905,0.35714 0,0.35714 0.16836,0 0.2381,-0.23809 0.35714,-0.35714 0.11905,-0.11905 0.28185,-0.20656 0.35715,-0.35714 0.0532,-0.10648 -0.0532,-0.46363 0,-0.35715 0.55697,1.11396 0.35714,2.37176 0.35714,3.57143 0,0.59524 0,1.19048 0,1.78572 0,0.23809 0.23809,0.71428 0,0.71428 -0.2381,0 -0.0337,-0.47858 0,-0.71428 0.0858,-0.60093 0.2713,-1.18479 0.35714,-1.78572 0.0337,-0.2357 -0.0391,-0.47943 0,-0.71428 0.0807,-0.48417 0.27645,-0.94441 0.35714,-1.42857 0.0392,-0.23486 -0.13207,-0.51618 0,-0.71429 0.51402,-0.77103 1.22116,-0.0941 1.78572,0 0.46971,0.0783 0.95238,0 1.42857,0 0.35714,0 0.72122,0.07 1.07143,0 0.54424,-0.10885 0.89255,-0.65528 1.07143,-0.35714 0.32984,0.54973 0.57521,1.15989 0.71428,1.78571 0.23338,1.05021 -0.8169,5.80624 1.42857,5.35714 0.33018,-0.066 0.46088,-0.49255 0.71429,-0.71428 3.37449,-2.95268 1.02713,-0.66999 3.21429,-2.85714 0.35714,-0.35715 0.76838,-0.66737 1.07142,-1.07143 0.4165,-0.55533 0.68638,-1.20814 1.07143,-1.78572 0.27284,-0.40925 0.97223,-0.95734 1.42857,-1.07143 0.23099,-0.0577 0.4833,0.0577 0.71429,0 0.43928,-0.10982 1.55527,-0.9178 1.78571,-1.07142 0.35715,-0.2381 0.68752,-0.52233 1.07143,-0.71429 0.57341,-0.2867 1.2523,-0.35867 1.78572,-0.71429 1.90476,-1.26984 -1.30953,-0.27777 1.07143,-1.07142 0.11293,-0.0376 0.35714,-0.11905 0.35714,0 0,1.41064 -0.64167,2.28214 -1.07143,3.57142 -0.15522,0.46566 -0.2223,0.95662 -0.35714,1.42858 -0.43244,1.51352 -0.35715,0.55821 -0.35715,1.78571 0,0.11905 0,0.47619 0,0.35714 0,-0.88264 -0.16835,-0.54592 0.35715,-1.07143 0.11905,-0.11904 0.20656,-0.28185 0.35714,-0.35714 0.10648,-0.0532 0.2381,0 0.35714,0 0.2381,0 0.47619,0 0.71429,0 0.81725,0 0.92084,0.0753 1.78571,-0.35714 0.15059,-0.0753 0.21706,-0.26376 0.35715,-0.35714 0.22149,-0.14766 0.49279,-0.20949 0.71428,-0.35715 0.14008,-0.0934 0.2381,-0.47619 0.35714,-0.35714 0.33329,0.33328 -0.58557,1.3314 0.71429,1.07143 0.4209,-0.0842 0.74553,-0.43495 1.07143,-0.71429 2.08986,-1.79131 0.98048,-0.88953 2.14286,-3.21428 0.0753,-0.15059 0.3039,-0.19743 0.35714,-0.35715 0.0753,-0.22587 -0.10648,-0.50132 0,-0.71428 0.11905,-0.2381 0.66208,0.0961 0.71428,0.35714 0.14009,0.70042 0,1.42857 0,2.14286 0,0.83333 0,1.66666 0,2.5"
       id="path3767"
       inkscape:connector-curvature="0"
       transform="translate(0,752.36218)" />
    <path
       style="fill:none;stroke:#000000;stroke-width:1px;stroke-linecap:butt;stroke-linejoin:miter;stroke-opacity:1"
       d="m 84.285714,151.78571 c 1.428572,0 2.857143,0 4.285715,0 0.119047,0 0.238095,0 0.357143,0 0.119047,0 0.272963,0.0842 0.357142,0 0.08418,-0.0842 0,-0.23809 0,-0.35714 0,-0.11905 0,-0.23809 0,-0.35714 0,-0.35714 0,-0.71429 0,-1.07143 0,-0.2381 0,-0.47619 0,-0.71429 0,-0.11904 0.02335,-0.47387 0,-0.35714 -0.142015,0.71008 -0.277175,1.42315 -0.357142,2.14286 -0.03944,0.35496 0.08662,0.72495 0,1.07143 -0.516864,2.06745 -0.550608,1.19794 -1.071429,2.5 -0.139814,0.34953 -0.09094,0.80523 -0.357143,1.07143 -0.119047,0.11904 -0.357143,-0.18879 -0.357143,-0.35715 0,-0.60324 1.275115,-1.59389 1.428572,-1.78571 2.03091,-2.53864 -1.757779,1.40063 1.071428,-1.42857 0.119048,-0.11905 0.197424,-0.30391 0.357143,-0.35715 0.225877,-0.0753 0.476191,0 0.714286,0 0.119047,0 0.250663,0.0532 0.357143,0 0.383917,-0.19195 0.687511,-0.52232 1.071428,-0.71428 1.038941,-0.51947 1.355709,-0.25657 2.5,-0.71429 C 94.799174,150.29462 94.880953,150.11905 95,150 c 0.476191,0 0.957167,0.0673 1.428572,0 0.372678,-0.0532 0.706207,-0.44845 1.071428,-0.35714 0.463622,0.1159 0.357143,1.17377 0.357143,1.42857 0,1.80984 -0.106479,-0.42592 0.357143,1.42857 0.05775,0.23099 -0.168359,0.54593 0,0.71429 0.168359,0.16835 0.488409,-0.0753 0.714286,0 0.159719,0.0532 0.206558,0.28185 0.357142,0.35714 0.10648,0.0532 0.238096,0 0.357143,0 0.714283,0 1.435753,0.10101 2.142853,0 0.97183,-0.13883 1.93456,-0.3788 2.85715,-0.71429 0.40339,-0.14668 0.68751,-0.52232 1.07143,-0.71428 0.57341,-0.28671 1.2123,-0.42758 1.78571,-0.71429 0.38392,-0.19196 0.66422,-0.57855 1.07143,-0.71428 0.33881,-0.11294 0.88768,-0.30625 1.07143,0 0.53095,0.88492 -0.48338,3.31282 -0.71429,3.92857 -0.0935,0.24925 -0.27296,0.46174 -0.35714,0.71428 -0.15522,0.46566 -0.13763,0.98955 -0.35714,1.42857 -0.15059,0.30117 -0.52751,0.43412 -0.71429,0.71429 -0.066,0.0991 0.11905,0.35714 0,0.35714 -0.11905,0 0,-0.23809 0,-0.35714 0,-1.12867 -0.16318,-2.17365 0.35714,-3.21429 0.0753,-0.15058 0.28185,-0.20655 0.35715,-0.35714 0.14778,-0.29558 -0.12483,-0.59813 -0.35715,-0.71428 -0.10648,-0.0532 -0.32827,0.11549 -0.35714,0 -0.11549,-0.46198 0,-0.95239 0,-1.42858 0,-1.19047 0,-2.38095 0,-3.57142 0,-0.2381 0,-0.4762 0,-0.71429 0,-0.11905 -0.0532,-0.25066 0,-0.35714 0.22096,-0.44192 1.01339,-0.71302 1.42857,-0.35715 1.59477,1.36695 1.2512,2.32359 2.14286,3.92858 0.28907,0.52033 0.74125,0.9333 1.07143,1.42857 0.38505,0.57757 0.61967,1.25866 1.07143,1.78571 0.41134,0.47991 1.51787,0.96727 2.14285,1.07143 1.50916,0.25153 0.69191,0.13397 1.42857,-0.35714 0.2215,-0.14766 0.4928,-0.20949 0.71429,-0.35715 0.28017,-0.18677 0.41312,-0.5637 0.71429,-0.71428 0.84243,-0.42122 0.17367,1.06162 0.35714,1.42857 0.0753,0.15058 0.20656,0.28185 0.35714,0.35714 0.10648,0.0532 0.24421,0.0377 0.35714,0 1.02041,-0.34013 0.52722,-0.2551 1.07143,-1.07143 0.0934,-0.14008 0.28185,-0.20655 0.35715,-0.35714 0.0532,-0.10648 0,-0.47619 0,-0.35714 0,0.59524 0.11673,1.20203 0,1.78571 -0.0522,0.26103 -0.25828,0.46713 -0.35715,0.71429 -0.093,0.23245 -0.43509,1.50652 -0.71428,1.78571 -0.0842,0.0842 -0.30391,0.10648 -0.35715,0 -0.10647,-0.21296 0,-0.47619 0,-0.71428 0,-1.30953 -0.10043,-2.62291 0,-3.92857 0.0204,-0.26542 0.25828,-0.46713 0.35715,-0.71429 0.13981,-0.34954 0.21733,-0.72189 0.35714,-1.07143 0.0989,-0.24716 0.27296,-0.46175 0.35714,-0.71428 0.0376,-0.11294 -0.0842,-0.27297 0,-0.35715 0.0826,-0.0826 0.77822,-0.50374 1.07143,-0.35714 0.38392,0.19196 0.67919,0.53996 1.07143,0.71429 0.68803,0.30579 1.42857,0.47619 2.14286,0.71428 0.35714,0.11905 0.69727,0.31557 1.07143,0.35714 0.94655,0.10518 1.90476,0 2.85714,0 0.47619,0 0.95886,0.0783 1.42857,0 0.1261,-0.021 1.16465,-0.75302 1.42857,-0.35714 0.19811,0.29716 0.0587,0.71915 0,1.07143 -0.0786,0.47175 -0.44525,1.33732 -0.71428,1.78571 -0.22084,0.36807 -0.55488,0.6729 -0.71429,1.07143 -0.0884,0.22107 0,0.47619 0,0.71429 0,0.11905 0,0.47619 0,0.35714 0,-2.36899 -0.16836,0.50508 0.35714,-1.07143 0.0753,-0.22587 -0.0753,-0.48841 0,-0.71428 0.0532,-0.15972 0.28185,-0.20656 0.35715,-0.35715 0.0532,-0.10648 -0.0842,-0.27296 0,-0.35714 0.0842,-0.0842 0.23809,0 0.35714,0 0.23809,0 0.47619,0 0.71428,0 0.59524,0 1.21145,0.15662 1.78572,0 0.77046,-0.21012 1.39234,-0.79851 2.14286,-1.07143 0.57048,-0.20744 1.20428,-0.18271 1.78571,-0.35714 6.09841,-1.82952 -2.3928,0.25396 3.57143,-1.07143 2.12686,-0.47263 0.70846,-0.35714 2.85714,-0.35714 0.2381,0 0.62586,-0.22107 0.71429,0 0.22106,0.55266 -0.12913,1.20465 0,1.78571 0.874,3.93302 0.71428,-0.56957 0.71428,2.5 0,0.4648 -0.0957,1.29783 0.35715,1.07143 0.23809,-0.11905 0.23809,-0.47619 0.35714,-0.71428 0.11905,-0.2381 0.27296,-0.46175 0.35714,-0.71429 0.0999,-0.29964 -0.1009,-1.58391 0,-1.78571 0.45053,-0.90107 0.7642,-1.12135 1.42857,-1.78572 0.2381,-0.23809 0.5637,-0.41312 0.71429,-0.71428 0.10648,-0.21296 -0.2381,-0.71429 0,-0.71429 0.2662,0 0.3195,0.45076 0.35714,0.71429 0.0842,0.58925 0,1.19047 0,1.78571 0,0.95238 0,1.90476 0,2.85714 0,0.35715 0.13264,0.73983 0,1.07143 -0.12505,0.31264 -0.41311,0.5637 -0.71428,0.71429 -0.10648,0.0532 0,-0.2381 0,-0.35715 0,-0.23809 0,-0.47619 0,-0.71428 0,-2.33981 -0.11294,0.20755 0.35714,-2.14286 0.0987,-0.49336 -0.2168,-1.04594 0.35714,-1.42857 0.19811,-0.13207 0.47619,0 0.71429,0 1.56372,0 2.72636,-0.0884 4.28571,0.35714 1.91553,0.5473 -0.896,0.2367 1.78572,1.42857 0.66172,0.2941 1.43278,0.21513 2.14285,0.35715 2.21882,0.44376 0.61484,0.35714 2.5,0.35714 0.59524,0 1.19048,0 1.78572,0 0.11905,0 0.25066,-0.0532 0.35714,0 0.15058,0.0753 0.3039,0.19742 0.35714,0.35714 0.0753,0.22588 0,0.47619 0,0.71429 0,0.35714 0.07,0.72122 0,1.07143 -0.0522,0.26103 -0.30493,0.45325 -0.35714,0.71428 -0.07,0.35021 0.11294,0.73262 0,1.07143 -0.0377,0.11294 -0.46362,0.0532 -0.35714,0 1.2417,-0.62085 1.21964,0.0486 2.14285,-1.42857 0.33978,-0.54364 0.37451,-1.24207 0.71429,-1.78571 0.0171,-0.0274 2.09238,-2.08229 2.14286,-2.14286 0.27479,-0.32975 0.49344,-0.70337 0.71428,-1.07143 0.13696,-0.22826 0.16892,-0.52606 0.35715,-0.71429 0.0842,-0.0842 0.25809,0.066 0.35714,0 0.28016,-0.18677 0.47619,-0.47619 0.71428,-0.71428 0.11905,-0.11905 0.2381,-0.2381 0.35715,-0.35714 0.11905,-0.11905 0.19742,-0.30391 0.35714,-0.35715 0.33882,-0.11294 0.71429,0 1.07143,0 0.11905,0 0.31293,-0.11053 0.35714,0 0.22545,0.56361 0.2381,1.19048 0.35714,1.78572 0.11905,0.59524 0.29011,1.1824 0.35715,1.78571 0.039,0.35065 -0.0487,3.04383 0,3.21429 0.15042,0.52646 1.0077,0.86099 1.42857,1.07143 0.23809,0.11904 0.45171,0.31338 0.71428,0.35714 0.46972,0.0783 0.95239,0 1.42858,0 1.00823,0 1.86038,0.07 2.85714,-0.35714 0.30949,-0.13264 0.40165,-0.58924 0.71428,-0.71429 0.3316,-0.13264 0.71429,0 1.07143,0 0.83334,0 1.66667,0 2.5,0 0.35715,0 0.72495,0.0866 1.07143,0 0.27559,-0.0689 1.94198,-0.73662 2.5,-1.07143 0.36807,-0.22084 0.6729,-0.55487 1.07143,-0.71428 0.22107,-0.0884 0.4833,0.0577 0.71429,0 0.25825,-0.0646 0.44808,-0.35715 0.71428,-0.35715 0.11905,0 0,0.2381 0,0.35715 0.2381,0 0.48841,0.0753 0.71429,0 0.15972,-0.0532 0.23809,-0.2381 0.35714,-0.35715 0.2381,-0.23809 0.5637,-0.41311 0.71429,-0.71428 0.10648,-0.21296 -0.2381,-0.71429 0,-0.71429 0.23809,0 0,0.47619 0,0.71429 0,1.90476 0,3.80952 0,5.71428 0,0.59524 -0.18823,1.22102 0,1.78572 0.0842,0.25254 0.28401,-0.45833 0.35714,-0.71429 0.16676,-0.58367 0.19742,-1.20008 0.35714,-1.78571 0.19811,-0.7264 0.51618,-1.41647 0.71429,-2.14286 1.29292,-4.7407 -0.36937,0.39383 0.71428,-2.85714 0.0697,-0.20921 0.45154,-1.52297 0.71429,-1.78572 0.0842,-0.0842 0.27296,0.0842 0.35714,0 0.0842,-0.0842 -0.0376,-0.2442 0,-0.35714 0.0842,-0.25254 0.20948,-0.4928 0.35714,-0.71429 0.32755,-0.49132 0.55098,-0.36731 1.07143,-0.71428 0.14009,-0.0934 0.2381,-0.2381 0.35715,-0.35714 0.23809,-0.11905 0.49279,-0.20949 0.71428,-0.35715 0.14008,-0.0934 0.19743,-0.3039 0.35714,-0.35714 0.16336,-0.0545 1.26966,0.0795 1.42858,0 0.15058,-0.0753 0.20655,-0.28185 0.35714,-0.35714 0.10648,-0.0532 0.23809,0 0.35714,0 0.2381,0 0.50133,-0.10648 0.71429,0 0.10648,0.0532 -0.0234,0.2404 0,0.35714 0.0963,0.48131 0.30294,0.94073 0.35714,1.42857 0.0657,0.5916 -0.0842,1.19646 0,1.78572 0.0377,0.26352 0.2381,0.47619 0.35714,0.71428 0,0.35714 0,0.71429 0,1.07143 0,0.11905 -0.11904,-0.35714 0,-0.35714 0.11905,0 0,0.23809 0,0.35714"
       id="path3769"
       inkscape:connector-curvature="0"
       transform="translate(0,752.36218)" />
    <path
       style="fill:none;stroke:#000000;stroke-width:1px;stroke-linecap:butt;stroke-linejoin:miter;stroke-opacity:1"
       d="m 83.928572,173.57143 c 0.188953,1.17336 1.368608,1.81438 1.785714,2.85714 0.08843,0.22107 -0.10648,0.50133 0,0.71429 0.05324,0.10648 0.272963,-0.0842 0.357143,0 0.08418,0.0842 -0.119048,0.35714 0,0.35714 0.525501,0 0.357143,-0.93196 0.357143,-1.07143 0,-0.23809 0,-0.47619 0,-0.71428 0,-0.2381 -0.07529,-0.48841 0,-0.71429 0.05324,-0.15972 0.238095,-0.47619 0.357142,-0.35714 0.184964,0.18496 -2.653141,1.66331 0.714286,-0.35715 0.228264,-0.13695 0.456035,-0.29258 0.714286,-0.35714 0.230986,-0.0577 0.47619,0 0.714286,0 0.357142,0 0.714285,0 1.071428,0 0.357143,0 0.732613,-0.11294 1.071429,0 0.410244,0.13675 0.495509,0.85265 0.714285,1.07143 0.08418,0.0842 0.238096,0 0.357143,0 0.349645,0 2.17277,0.0654 2.5,0 0.261029,-0.0522 0.526055,-0.16891 0.714286,-0.35714 0.303513,-0.30352 0.3709,-0.81389 0.714286,-1.07143 0.190476,-0.14286 0.47619,0 0.714285,0 0.119048,0 0.250664,0.0532 0.357143,0 0.150585,-0.0753 0.238096,-0.47619 0.357143,-0.35714 0.105178,0.10517 -0.08062,2.5 0,2.5 0.168359,0 0.238095,-0.2381 0.357143,-0.35715 0.119048,-0.11904 0.281851,-0.20656 0.357143,-0.35714 0.05324,-0.10648 -0.05324,-0.25066 0,-0.35714 0.119047,-0.2381 0.630106,-0.60968 0.714286,-0.35715 0.112938,0.33882 0,0.71429 0,1.07143 0,0.71429 0,1.42857 0,2.14286 0,0.11905 -0.08418,0.27296 0,0.35714 0.08418,0.0842 0.282774,0.093 0.357142,0 0.433639,-0.54205 0.654932,-1.23038 1.071426,-1.78571 0.30305,-0.40406 0.79127,-0.65118 1.07143,-1.07143 0.20882,-0.31324 0.12197,-0.77746 0.35714,-1.07143 0.26814,-0.33517 0.73626,-0.44615 1.07143,-0.71428 0.26294,-0.21035 0.40165,-0.58924 0.71429,-0.71429 0.3316,-0.13264 0.71428,0 1.07143,0 0.11904,0 0.25066,-0.0532 0.35714,0 0.38392,0.19196 0.6769,0.5452 1.07143,0.71429 0.45116,0.19335 0.95661,0.22229 1.42857,0.35714 0.36198,0.10342 0.69787,0.31045 1.07143,0.35714 1.28537,0.16067 2.33133,-0.0471 3.57143,-0.35714 0.36522,-0.0913 0.70009,-0.29525 1.07143,-0.35714 0.35228,-0.0587 0.71914,0.0587 1.07142,0 0.37134,-0.0619 0.73472,-0.52551 1.07143,-0.35715 0.70786,0.35393 0.13783,2.17103 0.35715,2.5 0.14766,0.22149 0.52605,0.16891 0.71428,0.35715 0.0842,0.0842 0,0.23809 0,0.35714 0,0.61213 0.0753,1.24517 -0.35714,1.78571 -0.26814,0.33518 -0.76792,0.41078 -1.07143,0.71429 -0.18823,0.18823 -0.16891,0.52605 -0.35714,0.71428 -0.0842,0.0842 -0.3195,0.11294 -0.35715,0 -0.34868,-1.04604 0.22096,-1.32064 0.71429,-2.14285 0.46507,-0.77512 0.39271,-1.26779 1.42857,-1.78572 0.31944,-0.15972 0.71429,0 1.07143,0 0.35714,0 0.71429,0 1.07143,0 0.47619,0 0.9707,-0.13082 1.42857,0 0.41272,0.11792 0.66953,0.56357 1.07143,0.71429 0.56838,0.21314 1.19047,0.23809 1.78571,0.35714 2.48613,0.49723 1.17869,0.35714 3.92857,0.35714 0.47619,0 0.97682,0.15059 1.42858,0 0.65853,-0.21951 1.22085,-0.66795 1.78571,-1.07142 0.274,-0.19572 0.44491,-0.51226 0.71429,-0.71429 0.21295,-0.15972 0.52605,-0.16891 0.71428,-0.35714 0.0842,-0.0842 0,-0.2381 0,-0.35715 0,-0.11904 0.11905,-0.35714 0,-0.35714 -0.42688,0 -0.49661,0.93196 -0.35714,1.07143 0.16836,0.16836 0.47619,0 0.71428,0 0.40922,0 2.76169,0.0754 3.21429,0 0.37134,-0.0619 0.70009,-0.29525 1.07143,-0.35714 0.26146,-0.0436 2.95282,-0.0436 3.21428,0 0.30869,0.0514 1.45263,0.46446 1.78572,0.71428 0.26937,0.20203 0.37757,0.71429 0.71428,0.71429 1.3014,0 4.22475,-2.47705 4.64286,-2.85714 0.44044,-0.4004 0.61949,-1.0412 1.07143,-1.42858 0.40423,-0.34648 0.95238,-0.47619 1.42857,-0.71428 0.2381,-0.11905 0.45326,-0.30494 0.71429,-0.35714 0.3502,-0.0701 0.72122,0.07 1.07143,0 0.26103,-0.0522 0.45603,-0.29258 0.71428,-0.35715 0.34648,-0.0866 0.71429,0 1.07143,0 0.11905,0 0.2381,0 0.35714,0 0.11905,0 0.27297,-0.0842 0.35715,0 0.0842,0.0842 0,0.2381 0,0.35715 0,0.23809 0,0.47619 0,0.71428 0,0.71429 -0.20525,1.4587 0,2.14286 0.17104,0.57013 0.70598,0.95872 1.07142,1.42857 0.468,0.6017 0.79432,1.36288 1.42858,1.78571 1.84023,1.22682 3.63252,1.84547 5.71428,2.14286 0.42806,0.0611 4.00136,0.55687 5,0.35714 0.62864,-0.12572 1.19646,-0.46174 1.78572,-0.71428 0.24467,-0.10486 0.49279,-0.20948 0.71428,-0.35714 0.14008,-0.0934 0.19743,-0.30391 0.35714,-0.35715 0.22588,-0.0753 0.48841,0.0753 0.71429,0 0.15972,-0.0532 0.20656,-0.28185 0.35714,-0.35714 0.33672,-0.16836 0.74862,-0.16346 1.07143,-0.35714 0.28873,-0.17324 0.42555,-0.54105 0.71429,-0.71429 0.32281,-0.19369 0.72189,-0.21733 1.07143,-0.35714 0.59468,-0.23788 1.03711,-0.73144 1.78571,-0.35714 0.2381,0.11904 0.25828,0.46712 0.35714,0.71428 0.13982,0.34954 0.28332,0.70228 0.35715,1.07143 0.0797,0.3983 -0.19555,1.15223 0.35714,1.42857 0.31944,0.15972 0.71428,0 1.07143,0 0.23809,0 0.47619,0 0.71428,0 0.47619,0 0.97682,0.15059 1.42857,0 0.11294,-0.0376 -0.0532,-0.25066 0,-0.35714 0.22972,-0.45943 1.0776,-0.67042 1.42858,-0.71429 0.59064,-0.0738 1.19739,0.0905 1.78571,0 1.78842,0.33875 3.04975,-1.13891 4.64286,-1.42857 0.70276,-0.12777 1.43829,0.11743 2.14285,0 0.74268,-0.12378 1.40208,-0.5796 2.14286,-0.71428 0.55608,-0.10111 2.37254,0 3.21429,0 0.23809,0 0.54592,0.16835 0.71428,0 0.16836,-0.16836 -0.13207,-0.51618 0,-0.71429 0.14766,-0.22149 0.47619,-0.2381 0.71429,-0.35714 0.23809,-0.11905 0.47619,-0.47619 0.71428,-0.35715 0.1893,0.0947 -0.11845,1.19166 0,1.42858 0.0753,0.15058 0.19743,0.3039 0.35715,0.35714 0.17351,0.0578 2.13537,0 2.5,0 0.23809,0 0.49322,-0.0884 0.71428,0 0.39854,0.15941 0.71429,0.47619 1.07143,0.71428 0.58358,0.38906 2.42639,1.64213 2.85714,1.78572 0.7986,0.2662 1.67826,0.17453 2.5,0.35714 2.32588,0.51686 -1.28552,0.35714 1.78572,0.35714 0.23809,0 0.54593,0.16836 0.71428,0 0.16836,-0.16835 0,-0.47619 0,-0.71428 0,-0.11905 0.0532,-0.25067 0,-0.35714 -0.0753,-0.15059 -0.23809,-0.2381 -0.35714,-0.35715 -0.11905,-0.11904 -0.23809,-0.23809 -0.35714,-0.35714"
       id="path3771"
       inkscape:connector-curvature="0"
       transform="translate(0,752.36218)" />
    <path
       style="fill:none;stroke:#000000;stroke-width:1px;stroke-linecap:butt;stroke-linejoin:miter;stroke-opacity:1"
       d="m 83.928572,188.57143 c 2.525381,-0.33176 -0.505077,1.63778 0,2.14286 0.08418,0.0842 0.357142,0.11904 0.357142,0 0,-0.72414 -0.809508,-1.5774 -0.357142,-2.14286 0.379206,-0.47401 1.178688,0.35714 1.785714,0.35714 0.952381,0 0.595238,-0.59524 1.071428,-1.07143 0.08418,-0.0842 0.238096,0 0.357143,0 0.119048,0 0.238096,0 0.357143,0 0.714286,0 1.431505,0.0647 2.142857,0 2.171478,-0.1974 2.833891,-0.56212 5,-1.42857 0.247159,-0.0989 0.449409,-0.33065 0.714286,-0.35714 0.947654,-0.0948 1.907182,0.0679 2.857143,0 0.722298,-0.0516 1.425997,-0.45955 2.142854,-0.35714 0.26353,0.0376 0.30494,0.45325 0.35715,0.71428 0.07,0.35021 0,0.71429 0,1.07143 0,0.95238 0,1.90476 0,2.85714 0,0.11905 0,0.2381 0,0.35715 0,0.11904 -0.0842,0.27296 0,0.35714 0.26275,0.26275 0.64455,-0.28741 0.71428,-0.35714 0.83757,-0.83757 -0.0842,0.25253 0.35714,-1.07143 0.0532,-0.15972 0.30391,-0.19743 0.35715,-0.35715 0.0753,-0.22587 -0.0753,-0.4884 0,-0.71428 0.0532,-0.15972 0.28185,-0.20656 0.35714,-0.35714 0.0532,-0.10648 -0.0842,-0.27297 0,-0.35715 0.0842,-0.0842 0.29111,-0.099 0.35714,0 0.0854,0.12802 0.4405,1.58037 0.71429,1.78572 0.30117,0.22587 0.70228,0.28331 1.07143,0.35714 1.3203,0.26406 3.64271,0.56596 5,0.35714 0.74417,-0.11448 1.40786,-0.55095 2.14285,-0.71428 0.34864,-0.0775 0.71429,0 1.07143,0 0.71429,0 1.42857,0 2.14286,0 0.11905,0 0.25809,-0.066 0.35714,0 1.23926,0.82617 0.63114,1.24272 1.07143,2.85714 0.37726,1.38329 0.71959,2.28783 2.14286,2.85714 0.91565,0.36627 3.3242,0.46398 4.28571,0.35715 0.37416,-0.0416 0.71429,-0.2381 1.07143,-0.35715 0.71429,-0.23809 1.42169,-0.49793 2.14286,-0.71428 0.47014,-0.14105 0.96291,-0.20193 1.42857,-0.35715 0.25254,-0.0842 0.45326,-0.30493 0.71429,-0.35714 0.3502,-0.07 0.71428,0 1.07142,0 0.11905,0 0.24165,-0.0289 0.35715,0 0.36522,0.0913 0.70945,0.25372 1.07143,0.35714 0.47196,0.13485 0.95661,0.2223 1.42857,0.35715 0.36197,0.10342 0.69875,0.3039 1.07143,0.35714 0.4714,0.0673 0.95238,0 1.42857,0 0.47619,0 0.95238,0 1.42857,0 0.35714,0 0.73261,0.11294 1.07143,0 1.03433,-0.34478 1.03983,-0.6511 1.42857,-1.42857 0.11905,-0.2381 0.13565,-0.56663 0.35714,-0.71429 0.19811,-0.13207 0.50133,0.10648 0.71429,0 0.30117,-0.15058 0.42875,-0.53582 0.71428,-0.71428 1.73549,-1.08468 3.73225,-1.70241 5.71429,-2.14286 0.59257,-0.13168 1.18337,-0.28185 1.78571,-0.35714 0.59064,-0.0738 1.19048,0 1.78572,0 0.23809,0 0.47619,0 0.71428,0 0.11905,0 0.25067,-0.0532 0.35715,0 0.82094,0.41047 -0.005,0.88552 0.35714,1.42857 0.14766,0.22149 0.46175,0.27296 0.71428,0.35714 1.21845,0.40615 3.13816,0.71024 4.28572,0.35714 0.72857,-0.22417 1.17589,-0.9712 1.78571,-1.42857 1.15061,-0.86295 2.51078,-1.96832 3.92857,-2.5 0.4596,-0.17234 0.97284,-0.17484 1.42858,-0.35714 0.2553,-0.10212 0.50307,-0.77957 0.71428,-0.35714 0.14898,0.29796 -0.16629,1.26228 0,1.42857 0.16836,0.16836 0.47619,0 0.71429,0 0.83333,0 1.68516,0.17461 2.5,0 0.88651,-0.18997 1.65379,-0.74597 2.5,-1.07143 2.84584,-1.09455 1.30208,-0.41481 3.92857,-1.07143 0.36522,-0.0913 0.69497,-0.35714 1.07143,-0.35714 0.58919,0 0.35714,1.20023 0.35714,2.14286 0,0.23809 0.0577,0.48329 0,0.71428 -0.0646,0.25825 -0.54537,0.52606 -0.35714,0.71429 0.34708,0.34708 0.93848,0.32991 1.42857,0.35714 1.6641,0.0925 3.33333,0 5,0 1.07143,0 2.14286,0 3.21428,0 0.71429,0 1.42858,0 2.14286,0 0.47619,0 0.95717,-0.0673 1.42857,0 0.37268,0.0532 0.70228,0.28331 1.07143,0.35714 0.23347,0.0467 0.50133,-0.10648 0.71429,0 0.30117,0.15059 0.43412,0.52751 0.71428,0.71429 0.0294,0.0196 1.33996,0 1.42857,0 0.83334,0 1.66667,0 2.5,0 2.7381,0 5.4762,0 8.21429,0 1.30952,0 2.61905,0 3.92857,0 0.2381,0 0.47619,0 0.71429,0 0.11905,0 0.25066,0.0532 0.35714,0 0.73201,-0.36601 -0.001,-0.95153 0.71429,-1.42857 0.1981,-0.13207 0.4884,0.0753 0.71428,0 0.81563,-0.27188 -0.22076,-0.71429 1.07143,-0.71429 0.11905,0 0.0377,0.24421 0,0.35714 -0.20273,0.6082 -0.34166,1.26404 -0.71429,1.78572 -0.24948,0.34928 -0.80328,0.37911 -1.07142,0.71428 -0.43872,0.5484 -0.0783,1.11057 -0.71429,1.42858 -0.10648,0.0532 -0.23809,0 -0.35714,0 -0.11905,0 -0.25067,0.0532 -0.35715,0 -0.15058,-0.0753 -0.19742,-0.30391 -0.35714,-0.35715 -0.33881,-0.11294 -0.71428,0 -1.07143,0"
       id="path3773"
       inkscape:connector-curvature="0"
       transform="translate(0,752.36218)" />
    <path
       style="fill:none;stroke:#000000;stroke-width:1px;stroke-linecap:butt;stroke-linejoin:miter;stroke-opacity:1"
       d="m 83.928572,210 c 2.318111,0 1.253317,0.2662 3.214285,-0.71429 0.476191,-0.23809 0.995342,-0.40483 1.428572,-0.71428 0.410997,-0.29357 0.714285,-0.71429 1.071428,-1.07143 0.238096,-0.2381 0.413117,-0.5637 0.714286,-0.71429 0.212959,-0.10648 0.47619,0 0.714286,0 1.056803,0 -0.274782,0.41205 0.714285,1.07143 0.198108,0.13207 0.476191,0 0.714286,0 0.357143,0 0.714286,0 1.071429,0 0.192322,0 3.204388,-0.0247 3.214285,0 0.59765,1.49413 0.357143,3.42036 0.357143,5 0,0.35715 -0.252538,0.81889 0,1.07143 0.188231,0.18823 0.566626,-0.13565 0.714286,-0.35714 0.132071,-0.19811 -0.04669,-0.48082 0,-0.71429 0.07383,-0.36915 0.188784,-0.73471 0.357143,-1.07143 0.191958,-0.38391 0.57855,-0.66422 0.714286,-1.07142 0.112938,-0.33882 -0.198108,-0.77427 0,-1.07143 0.132071,-0.19811 0.47619,0 0.714285,0 1.190473,0 -0.357143,-0.11905 0.357143,0.35714 0.56688,0.37792 2.99204,0.69576 3.21429,0.71429 0.71181,0.0593 1.44989,0.17324 2.14285,0 0.32667,-0.0817 0.42194,-0.54723 0.71429,-0.71429 1.71424,-0.97956 1.96317,-0.71429 3.92857,-0.71429 0.11905,0 0.25809,-0.066 0.35714,0 1.39769,0.93179 0.25729,0.41473 0.71429,1.78572 0.20165,0.60496 1.34365,1.81131 1.78571,2.14286 0.34339,0.25753 0.85059,-0.34623 1.07143,-0.71429 0.19369,-0.32281 0.21733,-0.72189 0.35714,-1.07143 0.0989,-0.24716 0.29258,-0.45603 0.35715,-0.71428 0.1886,-0.75441 -0.31735,-0.75409 0.35714,-1.42858 0.0842,-0.0842 0.2381,0 0.35714,0 0.11905,0 0.2381,0 0.35715,0 0.11904,0 0.25066,-0.0532 0.35714,0 0.15058,0.0753 0.23809,0.2381 0.35714,0.35715 0.35714,0.23809 0.66953,0.56357 1.07143,0.71428 0.56838,0.21314 1.18079,0.40756 1.78571,0.35715 2.51077,-0.20924 2.58583,-0.96741 4.64286,-2.14286 0.59256,-0.3386 2.76669,-1.53674 3.92857,-1.78572 1.30145,-0.27888 2.60305,-0.59378 3.92857,-0.71428 0.11856,-0.0108 -0.0233,0.24041 0,0.35714 0.0963,0.48132 0.30294,0.94073 0.35715,1.42857 0.0657,0.5916 0,1.19048 0,1.78572 0,0.59524 0,1.19047 0,1.78571 0,0.0129 -0.21296,1.68959 0.71428,1.07143 0.31324,-0.20882 0.14832,-0.75819 0.35715,-1.07143 0.46694,-0.70041 1.31877,-1.0853 1.78571,-1.78571 0.066,-0.0991 -0.11905,-0.35715 0,-0.35715 0.63263,0 0.22105,1.01699 0.35714,1.07143 0.73046,0.29218 1.82001,0.68 2.5,0 0.65747,-0.65746 1.12826,-1.48539 1.78572,-2.14285 1.02352,-1.02353 0.98096,-0.49049 2.14285,-1.07143 0.20191,-0.10095 1.23442,-1.12777 1.78572,-0.71429 1.08879,0.8166 1.0636,2.83368 1.42857,3.92857 0.16836,0.50508 0.2713,1.13325 0.71429,1.42857 0.39621,0.26415 0.95238,0 1.42857,0 0.59524,0 1.20825,0.14437 1.78571,0 0.41642,-0.1041 0.69875,-0.50132 1.07143,-0.71428 0.46225,-0.26414 0.95238,-0.47619 1.42857,-0.71429 1.30161,-0.6508 2.15501,-1.27119 3.57143,-1.42857 0.5916,-0.0657 1.19048,0 1.78571,0 0.71429,0 1.42858,0 2.14286,0 0.95238,0 1.91312,-0.12587 2.85714,0 0.85908,0.11454 1.66667,0.47619 2.5,0.71429 1.07143,0.23809 2.12424,0.58604 3.21429,0.71428 0.94586,0.11128 1.90476,0 2.85714,0 0.59524,0 1.20572,0.13385 1.78572,0 1.50505,-0.34732 2.74464,-1.25734 4.28571,-1.42857 0.5916,-0.0657 1.19048,0 1.78572,0 0.23809,0 0.47619,0 0.71428,0 0.11905,0 0.35714,-0.11905 0.35714,0 0,0.16836 -0.19381,0.31631 -0.35714,0.35714 -0.34648,0.0866 -0.71428,0 -1.07143,0 -0.35714,0 -0.77426,0.19811 -1.07143,0 -0.1981,-0.13207 0,-0.47619 0,-0.71428 0,-1.2521 -0.21436,-1.8928 1.07143,-2.85714 0.13469,-0.10102 0.35715,0.18878 0.35715,0.35714 0,0.40959 -1.36626,2.0338 -1.42858,2.14286 -0.18677,0.32686 -0.14831,0.75819 -0.35714,1.07142 -0.28016,0.42025 -0.76838,0.66737 -1.07143,1.07143 -0.0714,0.0952 -0.0842,0.44132 0,0.35715 0.37646,-0.37647 0.27131,-1.13326 0.71429,-1.42858 0.19811,-0.13207 0.47619,0 0.71428,0 0.11905,0 0.27297,-0.0842 0.35715,0 0.79014,0.79014 0.0555,1.95232 0.35714,2.85715 0.25151,0.75453 1.83206,1.47764 2.5,0.71428 6.30134,-7.20153 -2.04536,1.17761 3.57143,-3.92857 0.74745,-0.6795 1.30236,-1.58252 2.14286,-2.14286 0.62647,-0.41764 1.43526,-0.45698 2.14285,-0.71428 1.12831,-0.4103 2.77062,-1.19698 3.92857,-1.42857 0.46695,-0.0934 0.95239,0 1.42858,0 0.71428,0 1.42857,0 2.14285,0 0.2381,0 0.47619,0 0.71429,0 0.11905,0 0.27296,-0.0842 0.35714,0 0.37646,0.37646 0.27131,1.13325 0.71429,1.42857 0.1981,0.13207 0.4833,-0.0577 0.71428,0 0.25825,0.0646 0.47619,0.23809 0.71429,0.35714 0.35714,0.11905 0.70228,0.28331 1.07143,0.35714 0.0342,0.007 1.77269,0.007 1.78571,0 0.21296,-0.10648 -0.21296,-0.6078 0,-0.71428 0.26417,-0.13209 1.30219,0.0412 1.42857,0.35714 0.75293,0.47306 -0.18823,1.22102 0,1.78572 0.16823,0.50469 0.75612,1.05051 0,1.42857 -0.21296,0.10648 -0.50132,-0.10648 -0.71428,0 -0.15059,0.0753 -0.2381,0.23809 -0.35715,0.35714 -0.23809,0.2381 -0.58923,0.40165 -0.71428,0.71429 -0.13264,0.33159 0,0.71428 0,1.07142 0,0.11905 0,0.47619 0,0.35715 0,-0.47619 0,-0.95238 0,-1.42857"
       id="path3775"
       inkscape:connector-curvature="0"
       transform="translate(0,752.36218)" />
    <path
       style="fill:none;stroke:#000000;stroke-width:1px;stroke-linecap:butt;stroke-linejoin:miter;stroke-opacity:1"
       d="m 209.28571,230 c -3.9948,0 0.48466,0.33672 -2.14285,-0.71429 -0.3316,-0.13264 -0.73262,0.11294 -1.07143,0 -0.63058,-0.21019 -1.78117,-1.33361 -2.14286,-1.78571 -0.21959,-0.27449 -0.64784,-1.72204 -1.42857,-1.07143 -0.5856,0.488 -0.93618,1.2038 -1.42857,1.78572 -0.8104,1.62996 -2.41225,2.60379 -3.57143,3.92857 -0.50196,0.57367 -0.92661,1.21204 -1.42857,1.78571 -0.34474,0.39399 -0.98828,1.47015 -1.78572,1.07143 -0.10647,-0.0532 0,-0.2381 0,-0.35714 0,-0.59524 0,-1.19048 0,-1.78572 0,-0.23809 0.0577,-0.4833 0,-0.71428 -0.0646,-0.25825 -0.29258,-0.45604 -0.35714,-0.71429 -0.0577,-0.23098 0.13207,-0.51618 0,-0.71428 -0.14766,-0.22149 -0.47619,-0.2381 -0.71428,-0.35715 -0.2381,-0.11904 -0.45326,-0.30493 -0.71429,-0.35714 -1.2224,-0.24448 -1.57484,0.41224 -2.85714,-0.35714 -0.36807,-0.22084 -0.70337,-0.49345 -1.07143,-0.71429 -0.22826,-0.13696 -0.55457,-0.14418 -0.71429,-0.35714 -0.11904,-0.35714 -0.23809,-0.71429 -0.35714,-1.07143 -0.11905,0 -0.27296,0.0842 -0.35714,0 -0.0842,-0.0842 0.10648,-0.3039 0,-0.35714 -0.21296,-0.10648 -0.47619,0 -0.71429,0 -0.35714,0 -0.76518,-0.18375 -1.07143,0 -0.36806,0.22084 -0.41077,0.76791 -0.71428,1.07143 -0.30352,0.30351 -0.72805,0.45674 -1.07143,0.71428 -0.13469,0.10102 -0.19381,0.31631 -0.35714,0.35714 -0.34648,0.0866 -0.71429,0 -1.07143,0 -0.47619,0 -0.95238,0 -1.42857,0 -0.35715,0 -0.71788,0.0505 -1.07143,0 -0.48592,-0.0694 -0.95238,-0.23809 -1.42857,-0.35714 -0.71429,0 -1.43294,0.0789 -2.14286,0 -1.43942,-0.15993 -2.84112,-0.6111 -4.28572,-0.71428 -1.89992,-0.13571 -3.80952,0 -5.71428,0 -2.38095,0 -4.77298,-0.22935 -7.14286,0 -1.35104,0.13074 -2.61175,0.74222 -3.92857,1.07142 -0.5889,0.14723 -1.20204,0.19038 -1.78571,0.35715 -3.79601,1.08457 -2.4225,1.05593 -6.07143,1.78571 -1.28518,0.25704 -1.07143,-0.5771 -1.07143,-1.42857 0,-0.11905 0.11743,-0.33757 0,-0.35714 -0.70457,-0.11743 -1.42857,0 -2.14286,0 -0.71428,0 -1.43829,-0.11743 -2.14286,0 -0.74267,0.12378 -1.42168,0.49793 -2.14285,0.71428 -0.47015,0.14105 -0.95661,0.2223 -1.42857,0.35715 -0.36198,0.10342 -0.70228,0.28331 -1.07143,0.35714 -0.23347,0.0467 -0.48841,-0.0753 -0.71429,0 -0.15972,0.0532 -0.19742,0.3039 -0.35714,0.35714 -0.22588,0.0753 -0.47619,0 -0.71429,0 -0.23809,0 -0.48841,0.0753 -0.71428,0 -0.15972,-0.0532 -0.19108,-0.32946 -0.35715,-0.35714 -0.58713,-0.0979 -1.19047,0 -1.78571,0 -1.19048,0 -2.38095,0 -3.57143,0 -0.30309,0 -1.94597,0.0656 -2.14286,0 -0.31943,-0.10648 -0.39484,-0.60781 -0.71428,-0.71429 -0.33882,-0.11294 -0.71429,0 -1.07143,0 -0.59524,0 -1.26316,-0.28503 -1.78571,0 -0.88681,0.48372 -1.36684,1.49618 -2.14286,2.14286 -7.67193,5.11462 1.86254,-1.58508 -3.21429,2.85714 -0.52241,0.45711 -1.25866,0.61968 -1.78571,1.07143 -0.3259,0.27934 -0.3709,0.81389 -0.71429,1.07143 -0.19047,0.14286 -0.63899,0.22588 -0.71428,0 -0.3409,-1.0227 -0.21772,-2.14532 -0.35715,-3.21429 -0.21775,-1.66944 -0.47619,-3.33333 -0.71428,-5 -0.11905,-0.83333 -0.19205,-1.67455 -0.35714,-2.5 -0.19253,-0.96262 -0.56502,-1.88686 -0.71429,-2.85714 0,-4.83958 0.2662,-0.007 -0.35714,-2.5 -0.0577,-0.23099 0.13207,-0.51618 0,-0.71428 -0.14766,-0.2215 -0.56663,-0.57864 -0.71429,-0.35715 -0.26414,0.39622 0,0.95238 0,1.42857 0,0.83334 0.137,1.67801 0,2.5 -0.10539,0.63237 -0.5588,1.16377 -0.71428,1.78572 -0.20417,0.81666 -0.21876,1.66966 -0.35715,2.5 -0.0998,0.59877 -0.28185,1.18337 -0.35714,1.78571 -0.0443,0.35439 0.0587,0.71915 0,1.07143 -0.0619,0.37134 -0.26584,0.70621 -0.35714,1.07143 -0.0128,0.051 0.10222,0.94397 -0.35715,0.71429 -1.16935,-0.58468 -1.58357,-2.28216 -2.14285,-3.21429 -0.30625,-0.51041 -0.75596,-0.92381 -1.07143,-1.42857 -0.66986,-1.07178 -0.59426,-1.81917 -1.78572,-2.5 -0.42617,-0.24353 -0.96291,-0.20193 -1.42857,-0.35714 -0.25254,-0.0842 -0.45014,-0.32413 -0.71428,-0.35715 -1.60871,-0.20109 -3.533228,0.10313 -5.000003,0.71429 -0.54945,0.22894 -0.908239,0.78235 -1.428571,1.07143 -3.261855,1.81214 -0.382503,-0.1422 -3.214286,1.07143 -0.394527,0.16908 -0.672896,0.55487 -1.071428,0.71428 -0.221066,0.0884 -0.501327,-0.10648 -0.714286,0 -0.10648,0.0532 0.08418,0.27296 0,0.35714 -3.41e-4,3.5e-4 -1.06981,-5.4e-4 -1.071429,0 -0.159719,0.0532 -0.222456,0.25613 -0.357143,0.35715 -0.530871,0.39815 -1.411743,0.80528 -1.785714,1.42857 -0.193688,0.32281 -0.238095,0.71428 -0.357143,1.07143 -0.119047,0.35714 -0.283312,0.70227 -0.357143,1.07143 -0.09339,0.46694 0,0.95238 0,1.42857 0,0.11904 -0.02335,-0.24041 0,-0.35715 0.09626,-0.48131 0.222298,-0.95661 0.357143,-1.42857 0.103422,-0.36197 0.295253,-0.70009 0.357143,-1.07143 0.09786,-0.58714 0,-1.19047 0,-1.78571 0,-0.11905 0,-0.47619 0,-0.35714 0,0.60588 -0.133588,1.29498 0.357143,1.78571 0.08418,0.0842 0,-0.23809 0,-0.35714 0,-0.27486 0.05905,-1.66762 0,-1.78572 -0.417351,-0.8347 -2.3346,-1.60977 -3.214286,-1.78571 -0.70425,-0.14085 -1.175287,0.25328 -1.785714,-0.35714 -0.08418,-0.0842 0,-0.2381 0,-0.35715"
       id="path3777"
       inkscape:connector-curvature="0"
       transform="translate(0,752.36218)" />
    <path
       style="fill:none;stroke:#000000;stroke-width:1px;stroke-linecap:butt;stroke-linejoin:miter;stroke-opacity:1"
       d="m 85.357143,245.71429 c 0,1.42857 0,2.85714 0,4.28571 0,0.11905 -0.06604,0.4562 0,0.35714 0.578855,-0.86828 0.518716,-1.59694 1.428571,-2.14285 2.487082,-0.82903 -0.175254,0.23588 1.785715,-1.07143 0.09905,-0.066 0.258089,-0.066 0.357143,0 1.261369,0.84091 1.182522,2.36504 1.785714,3.57143 0.310438,0.62087 0.482781,1.41781 1.071428,1.78571 0.504761,0.31548 1.194117,-0.0657 1.785715,0 0.487843,0.0542 0.940727,0.41135 1.428571,0.35714 2.34104,-0.26011 1.204927,-0.56519 2.5,-1.42857 0.442981,-0.29532 0.995342,-0.40483 1.428572,-0.71428 1.236478,-0.8832 0.631892,-1.04397 1.785718,-1.42858 0.20688,-0.069 1.11907,0 1.42857,0 0.95238,0 1.90476,0 2.85714,0 0.71429,0 1.42857,0 2.14286,0 0.47619,0 0.95238,0 1.42857,0 0.23809,0 0.4833,-0.0577 0.71428,0 0.51651,0.12913 0.91666,0.56803 1.42858,0.71429 0.83054,0.2373 2.29428,0.52442 3.21428,0.35714 0.8527,-0.15503 1.74239,-0.29339 2.5,-0.71428 0.37522,-0.20846 0.3709,-0.81389 0.71429,-1.07143 0.63887,-0.47916 1.46565,-0.64818 2.14285,-1.07143 0.28554,-0.17846 0.41312,-0.5637 0.71429,-0.71429 0.40885,-0.20442 0.88095,-0.0238 1.07143,0.35715 0.0532,0.10648 0,0.23809 0,0.35714 0,0.95238 0,1.90476 0,2.85714 0,0.2381 -0.16836,0.54593 0,0.71429 0.16836,0.16836 0.47619,0 0.71428,0 0.35715,0 0.73262,0.11294 1.07143,0 0.2991,-0.0997 2.48589,-1.7669 2.5,-1.78572 0.38466,-0.51287 0.30387,-1.29321 0.71429,-1.78571 0.241,-0.28921 0.77026,-0.13127 1.07143,-0.35714 0.21296,-0.15972 0.0909,-0.71429 0.35714,-0.71429 0.2381,0 0,0.47619 0,0.71429 0,0.5325 -0.16951,2.91334 0.35714,3.21428 0.88889,0.50794 3.39683,0.44445 4.28572,0 0.83163,-0.41581 1.33007,-1.33416 2.14285,-1.78571 0.3122,-0.17345 0.71606,0.0355 1.07143,0 0.83762,-0.0838 1.66336,-0.26418 2.5,-0.35714 0.23664,-0.0263 0.60781,-0.21296 0.71429,0 0.32384,0.64768 0.10967,1.46231 0.35714,2.14285 0.23723,0.65237 0.64526,1.23778 1.07143,1.78572 1.13937,1.46491 1.70827,1.77022 3.57143,2.14285 2.36764,0.47353 4.75107,0.35715 7.14286,0.35715 1.07142,0 2.14285,0 3.21428,0 0.4134,0 1.46686,0.0797 1.78572,0 0.70924,-0.17731 1.43361,-0.89412 2.14285,-1.07143 0.23099,-0.0577 0.47619,0 0.71429,0 0.23809,0 0.54593,-0.16836 0.71428,0 0.16836,0.16836 -0.0753,0.48841 0,0.71428 0.0532,0.15972 0.28186,0.20656 0.35715,0.35715 0.10648,0.21296 -0.22588,0.63899 0,0.71428 0.56713,0.18905 2.61011,-0.25127 2.85714,-0.35714 0.30949,-0.13264 0.42555,-0.54105 0.71429,-0.71429 0.32281,-0.19368 0.73471,-0.18878 1.07142,-0.35714 0.38392,-0.19196 0.66423,-0.57855 1.07143,-0.71428 1.29884,-0.43295 2.60109,-0.35715 3.92857,-0.35715 0.71429,0 1.4587,0.20525 2.14286,0 0.57014,-0.17104 0.93331,-0.74125 1.42857,-1.07143 0.57758,-0.38505 1.16484,-0.76099 1.78572,-1.07142 0.57087,-0.28544 1.966,-0.56172 2.5,-0.71429 0.36197,-0.10342 0.70227,-0.28331 1.07143,-0.35714 0.23347,-0.0467 0.47619,0 0.71428,0 0.2381,0 0.48841,-0.0753 0.71429,0 0.15972,0.0532 0.23809,0.23809 0.35714,0.35714 0.59524,0.2381 1.17166,0.53007 1.78571,0.71429 0.58143,0.17442 1.19048,0.23809 1.78572,0.35714 0.59524,0.11905 1.18479,0.27129 1.78571,0.35714 0.23571,0.0337 0.47619,0 0.71429,0 0.59524,0 1.19343,0.0592 1.78571,0 0.014,-0.001 2.14055,-0.53687 2.5,-0.35714 0.10648,0.0532 0,0.23809 0,0.35714 0,0.2381 0,0.47619 0,0.71429 0,0.23809 -0.0753,0.48841 0,0.71428 0.0532,0.15972 0.2381,0.2381 0.35715,0.35715 0.23809,0.23809 0.42555,0.54104 0.71428,0.71428 0.58581,0.35148 2.95564,0.74662 3.21429,0.71429 0.33411,-0.0418 0.45863,-0.49516 0.71428,-0.71429 0.57877,-0.49608 1.1759,-0.9712 1.78572,-1.42857 0.68677,-0.51508 1.40673,-0.9869 2.14285,-1.42857 0.45653,-0.27392 0.98559,-0.41897 1.42858,-0.71429 0.14008,-0.0934 0.23809,-0.23809 0.35714,-0.35714 0.35714,-0.35714 0.71428,-0.71429 1.07143,-1.07143 0.55972,-0.55972 1.00885,-1.16962 1.78571,-1.42857 1.26348,-0.42116 0.48797,3.11879 0.71429,3.57143 0.0532,0.10648 0.23809,0 0.35714,0 0.35714,0 0.71915,-0.0587 1.07143,0 0.37134,0.0619 0.70009,0.29525 1.07143,0.35714 0.55216,0.092 1.33744,0.0911 1.78571,-0.35714 0.18823,-0.18823 0.16891,-0.52606 0.35714,-0.71429 0.4762,-0.47619 0.3427,0.75762 0.71429,-0.35714 0.44132,-1.32397 -0.48042,-0.23387 0.35714,-1.07143"
       id="path3779"
       inkscape:connector-curvature="0"
       transform="translate(0,752.36218)" />
    <path
       style="fill:none;stroke:#000000;stroke-width:1px;stroke-linecap:butt;stroke-linejoin:miter;stroke-opacity:1"
       d="m 84.642857,269.28571 c 0,1.54762 0,3.09524 0,4.64286 0,0.35714 -0.252538,0.81889 0,1.07143 0.347081,0.34708 0.945643,0.44495 1.428572,0.35714 3.535673,-0.64285 2.080937,-1.68314 5,-3.92857 0.596785,-0.45906 1.492498,-0.33491 2.142857,-0.71428 0.803134,-0.4685 1.358428,-1.28654 2.142857,-1.78572 0.540864,-0.34418 1.190476,-0.47619 1.785714,-0.71428 0.595238,-0.35715 1.208138,-0.68638 1.785715,-1.07143 0.140083,-0.0934 0.263754,-0.49723 0.357142,-0.35715 0.530383,0.79558 0.357143,2.86728 0.357143,3.57143 0,0.71429 0,1.42857 0,2.14286 0,0.5936 -0.319438,2.18056 0.357143,2.85714 0.0842,0.0842 0.2381,0 0.35714,0 0.2381,0 0.47619,0 0.71429,0 0.11905,0 0.2442,0.0376 0.35714,0 0.40092,-0.13364 1.03847,-0.3901 0.71429,-0.71428 -0.13776,-0.13776 -1.00805,0.235 -0.71429,0 0.67035,-0.53628 1.45609,-0.9135 2.14286,-1.42857 0.74383,-0.55788 1.35843,-1.28654 2.14286,-1.78572 0.54086,-0.34418 1.2123,-0.42758 1.78571,-0.71428 0.62088,-0.31044 1.16484,-0.76099 1.78571,-1.07143 0.33672,-0.16836 0.73472,-0.18879 1.07143,-0.35715 0.15059,-0.0753 0.2381,-0.47619 0.35715,-0.35714 0.16835,0.16836 -0.19811,0.58222 0,0.71429 0.29716,0.1981 0.71575,-0.0323 1.07142,0 0.95586,0.0869 1.89979,0.28876 2.85715,0.35714 0.71247,0.0509 1.42857,0 2.14285,0 0.83334,0 1.66879,0.0594 2.5,0 0.83966,-0.06 1.66112,-0.28724 2.5,-0.35714 0.59319,-0.0494 1.36482,-0.4209 1.78572,0 0.51204,0.51204 0.2276,1.4304 0.35714,2.14285 0.49723,2.73475 0.35714,0.88615 0.35714,3.92858 0,0.47619 0,0.95238 0,1.42857 0,0.59524 -0.0978,1.19857 0,1.78571 0.0277,0.16607 0.19743,0.41038 0.35715,0.35714 0.31944,-0.10648 0.47619,-0.47619 0.71428,-0.71428 0.59524,-0.59524 1.19048,-1.19048 1.78572,-1.78572 0.11904,-0.11904 0.21706,-0.26375 0.35714,-0.35714 0.65496,-0.43664 1.45894,-0.68061 2.14286,-1.07143 0.6027,-0.3444 1.17631,-0.73903 1.78571,-1.07143 0.70109,-0.38241 1.49701,-0.60171 2.14286,-1.07142 0.68079,-0.49512 1.10492,-1.2906 1.78571,-1.78572 0.64586,-0.46971 1.42857,-0.71428 2.14286,-1.07143 0.71429,-0.35714 1.42857,-0.71428 2.14286,-1.07143 0.23809,-0.11904 0.47619,-0.23809 0.71428,-0.35714 0.2381,-0.11905 0.44809,-0.35714 0.71429,-0.35714 0.11905,0 0,0.23809 0,0.35714 0,0.35714 0,0.71429 0,1.07143 0,0.11905 0,0.2381 0,0.35714 0,0.11905 -0.0532,0.25067 0,0.35715 0.0753,0.15058 0.19381,0.31631 0.35714,0.35714 1.25349,0.31337 1.07133,-0.17852 2.14286,-0.71429 0.57341,-0.2867 1.19646,-0.46174 1.78571,-0.71428 0.24468,-0.10486 0.45604,-0.29258 0.71429,-0.35715 0.11884,-0.0297 1.67369,-0.056 1.78571,0 0.6223,0.31115 0.16202,0.99043 1.42857,0.35715 0.68181,-0.3409 1.10392,-1.08767 1.78572,-1.42857 1.14153,-0.57077 3.36192,-0.85794 4.64286,-1.07143 0.71428,-0.11905 1.49516,-0.68099 2.14285,-0.35715 0.42592,0.21296 0,0.95239 0,1.42858 0,1.19047 0,2.38095 0,3.57142 0,0.35715 0.07,0.72123 0,1.07143 -0.0522,0.26103 -0.35714,0.44809 -0.35714,0.71429 0,0.11905 0.25066,0.0532 0.35714,0 0.0852,-0.0426 2.09943,-1.41409 2.14286,-1.42857 0.33882,-0.11294 0.73261,-0.11294 1.07143,0 0.11294,0.0376 0.0532,0.25066 0,0.35714 -0.0753,0.15058 -0.2381,0.2381 -0.35714,0.35714 -0.2381,0.2381 -0.47619,0.95238 -0.71429,0.71429 -0.23809,-0.2381 0.46088,-0.49256 0.71429,-0.71429 0.69974,-0.61227 1.38114,-1.25251 2.14285,-1.78571 0.43616,-0.30531 0.96318,-0.45573 1.42857,-0.71429 0.60681,-0.33711 1.19048,-0.71428 1.78572,-1.07143 0.59524,-0.35714 1.101,-0.9573 1.78571,-1.07142 0.26258,-0.0438 0.35715,0.44808 0.35715,0.71428 0,1.34897 -0.50562,0.8427 -1.07143,1.78572 -0.19369,0.32281 -0.22496,0.71893 -0.35715,1.07142 -0.2251,0.60028 -0.58855,1.15708 -0.71428,1.78572 -0.0233,0.11673 0.24267,0.0327 0.35714,0 0.72396,-0.20685 1.41891,-0.50744 2.14286,-0.71429 2.01019,-0.57434 2.78237,-0.69933 4.64286,-1.07143 0.59523,-0.11904 1.18694,-0.45693 1.78571,-0.35714 0.26258,0.0438 0.3195,0.45076 0.35714,0.71429 0.11781,0.82461 0.0472,2.40555 -0.35714,3.21428 -0.0637,0.12745 -1.42857,1.72511 -1.42857,2.14286 0,0.11905 0.23809,0 0.35714,0 0.59524,0 1.19412,0.0657 1.78572,0 0.48784,-0.0542 0.94725,-0.26088 1.42857,-0.35714 0.71007,-0.14202 1.4304,-0.22761 2.14285,-0.35715 0.59724,-0.10858 1.18119,-0.30218 1.78572,-0.35714 0.71135,-0.0647 1.42857,0 2.14286,0 2.5,0 5,0 7.5,0 1.90476,0 3.8161,0.15818 5.71428,0 0.9783,-0.0815 1.88881,-0.5529 2.85714,-0.71428 0.46972,-0.0783 0.97682,0.15058 1.42858,0 0.31943,-0.10648 0.40165,-0.58924 0.71428,-0.71429 0.56263,-0.22505 1.42857,0.32766 1.42857,-0.35714 0,-0.74317 -0.50084,-0.14371 -0.71428,-0.35715 -0.0842,-0.0842 0,-0.23809 0,-0.35714 0,-0.11905 0,-0.23809 0,-0.35714 0,-0.2381 -0.16836,-0.54593 0,-0.71429 1.26339,-1.26339 0.29151,1.62547 1.07143,-0.71428 0.0376,-0.11294 -0.0377,-0.24421 0,-0.35715 0.0842,-0.25253 0.29258,-0.45603 0.35714,-0.71428 0.0577,-0.23099 -0.2381,-0.71429 0,-0.71429 0.2662,0 0.20948,0.4928 0.35714,0.71429 0.18678,0.28016 0.52751,0.43412 0.71429,0.71428 0.0443,0.0665 0.6914,1.40569 0.71428,1.42858 0.0842,0.0842 0.2381,0 0.35715,0"
       id="path3781"
       inkscape:connector-curvature="0"
       transform="translate(0,752.36218)" />
  </g>
</svg>
